<svg xmlns="http://www.w3.org/2000/svg" xml:space="preserve" style="fill-rule:evenodd;clip-rule:evenodd;stroke-linejoin:round;stroke-miterlimit:2" viewBox="0 0 1690 1684">
    <path d="M-2148.63-1030.02h2761.2v2165.43h-2761.2z" style="fill:none" transform="matrix(.61191 0 0 .7773 1314.78 800.64)"/>
    <path d="m1126.75 75.322 17.01 73.8a754 754 0 0 1 143.86 81.9l72.14-23.05a817 817 0 0 1 112.349 111l-22.16 72.42a755 755 0 0 1 83.64 142.86l73.99 16.11a816 816 0 0 1 41.81 152.311l-55.41 51.63a754 754 0 0 1 1 165.53l56.03 50.96a817 817 0 0 1-39.95 152.8l-73.8 17.01a754.4 754.4 0 0 1-81.9 143.861l23.05 72.14a816 816 0 0 1-111 112.35l-72.42-22.16a754.2 754.2 0 0 1-142.85 83.63l-16.12 74a816.7 816.7 0 0 1-152.299 41.8l-51.63-55.4a754.7 754.7 0 0 1-165.54 1l-50.95 56.03a817 817 0 0 1-152.809-39.95l-17.01-73.8a754.4 754.4 0 0 1-143.86-81.9l-72.14 23.05a817 817 0 0 1-112.35-111l22.17-72.42a753.8 753.8 0 0 1-83.639-142.86l-74-16.11a817 817 0 0 1-41.8-152.31l55.4-51.63a754.6 754.6 0 0 1-1-165.53l-56.03-50.96a817 817 0 0 1 39.95-152.801l73.8-17.01a755 755 0 0 1 81.9-143.86l-23.04-72.14a815.6 815.6 0 0 1 111-112.35l72.41 22.16a754.3 754.3 0 0 1 142.86-83.63l16.11-74A817 817 0 0 1 705.83 37.001l51.63 55.4c54.97-6.4 110.48-6.74 165.53-1l50.96-56.03a817 817 0 0 1 152.799 39.95m-368.8 789.601c-2.24-8.49-2.82-17.02-2.99-24.64-.29-13.32 5.7-26.42 17.55-33.39a22 22 0 0 0 10.75-17.09c.6-7.09-2.57-15.77-7.72-20.69-2.65-2.52-5.71-4.46-9.31-5.68-6.94-2.36-14.45-.31-20.6 3.66a21.78 21.78 0 0 0-9.97 18.11c0 .3-.01.39-.01.44-.12 13.8-9.19 25.13-21.25 31.49-6.12 4.77-13.47 8.15-22.09 10.08-1.24.27-2.54.07-3.64-.57l-85.169-49.17-233.45 134.78v269.56l233.45 134.781 233.44-134.78v-81.52c0-.85-.18-1.7-.55-2.47l-1.92-4.09c-4.76-10.09-16.07-15.33-26.84-12.42l-15.46 4.16c-11.96 3.23-24.74.7-34.58-6.84a39.83 39.83 0 0 1-15.6-31.61v-.01c0-12.38 5.76-24.06 15.59-31.6a39.8 39.8 0 0 1 34.57-6.85l14.11 3.79c11.66 3.13 23.88-2.58 28.95-13.53l1.35-2.91c.25-.55.38-1.15.38-1.76v-81.9l-76.62-44.24a5.15 5.15 0 0 1-2.37-3.09m93.65 142.63c-6.21 6.2-13.3 10.99-19.8 14.96-11.37 6.95-25.7 8.35-37.69 1.61a21.98 21.98 0 0 0-20.17-.71c-6.44 3.05-12.5 10.11-14.01 17.08-.79 3.63-.98 7.25-.24 10.9 1.46 7.18 7 12.64 13.53 15.97 6.52 3.33 14.29 3.14 20.66-.48.28-.18.31-.18.36-.21 11.99-6.83 32.06-3.27 39.6 1.02 6.63 3.76 12.31 9.01 18.19 15.6.83.93 1.29 2.13 1.29 3.38l.28 98.36 233.83 134.111 233.07-135.44-.77-269.57-233.84-134.11-70.48 40.96c-.74.43-1.37 1.02-1.86 1.72l-2.57 3.72c-6.33 9.19-5.18 21.59 2.75 29.45l11.37 11.27a39.85 39.85 0 0 1 11.46 33.33 39.87 39.87 0 0 1-19.49 29.38h-.01a39.81 39.81 0 0 1-35.16 2.4 39.78 39.78 0 0 1-23.29-26.44l-3.81-14.11c-3.15-11.65-14.23-19.35-26.25-18.23l-3.19.3c-.61.05-1.2.24-1.72.55l-70.81 41.15s.22 74.98.25 88.48c0 1.34-.53 2.64-1.48 3.6m78.49-151.09c8.47 2.3 16.15 6.06 22.83 9.73 11.68 6.4 20.03 18.14 20.15 31.89.06 7.12 3.57 13.78 9.42 17.85 5.84 4.07 14.86 5.37 21.78 3.66 3.66-.91 6.79-2.79 9.57-5.22 5.52-4.82 7.49-12.36 7.13-19.68a21.77 21.77 0 0 0-10.7-17.68c0-.01-.22-.14-.28-.17-11.89-7-15.16-20.8-17.11-34.26-.4-7.61.09-15.67 2.69-24.1a5.1 5.1 0 0 1 2.31-2.89l85.17-49.17v-269.56L849.6 362.083l-233.449 134.78v269.56l70.61 40.76c.73.43 1.56.69 2.41.76l4.51.37c11.11.93 21.3-6.24 24.17-17.02l4.12-15.48a39.8 39.8 0 0 1 23.22-26.52 39.82 39.82 0 0 1 35.17 2.29l.01.01a39.8 39.8 0 0 1 19.57 29.3 39.8 39.8 0 0 1-11.34 33.36l-10.34 10.33c-8.55 8.53-9.71 21.97-2.76 31.84l1.85 2.62c.34.49.8.91 1.33 1.21l70.92 40.95s64.94-37.49 76.63-44.23c1.17-.68 2.55-.86 3.86-.51"/>
</svg>
