<?xml version="1.0" encoding="UTF-8" standalone="no"?>
<!DOCTYPE svg PUBLIC "-//W3C//DTD SVG 1.1//EN" "http://www.w3.org/Graphics/SVG/1.1/DTD/svg11.dtd">
<svg width="100%" height="100%" viewBox="0 0 2272 861" version="1.1" xmlns="http://www.w3.org/2000/svg" xmlns:xlink="http://www.w3.org/1999/xlink" xml:space="preserve" xmlns:serif="http://www.serif.com/" style="fill-rule:evenodd;clip-rule:evenodd;stroke-linejoin:round;stroke-miterlimit:2;">
    <g transform="matrix(1,0,0,1,-13207,-2146)">
        <g transform="matrix(1,0,0,1,6024,-0.871566)">
            <g id="horizontal-transparent-white" transform="matrix(1,0,0,0.49211,8032.647062,1258.626219)">
                <rect x="-849.647" y="1804.972" width="2271.809" height="1749.294" style="fill:none;"/>
                <g id="Image" transform="matrix(1.272696,0,0,2.5862,-1049.207114,1851.003064)">
                    <g id="Outer-Cog" serif:id="Outer Cog" transform="matrix(2.012643,0.526226,-0.526226,2.012643,-733.527557,-1343.632968)">
                        <path d="M756.223,512.868L760.948,521.894C768.309,523.021 775.523,524.954 782.461,527.659L791.066,522.204L791.069,522.204C797.533,525.143 803.697,528.702 809.474,532.83L809.475,532.833L809.054,543.012C814.865,547.668 820.147,552.949 824.802,558.761L834.982,558.34L834.985,558.341C839.113,564.118 842.672,570.282 845.611,576.746L845.611,576.749L840.156,585.354C842.861,592.292 844.794,599.506 845.921,606.867L854.947,611.592L854.949,611.595C855.635,618.662 855.635,625.779 854.949,632.847L854.947,632.849L845.921,637.574C844.794,644.935 842.861,652.149 840.156,659.087L845.611,667.692L845.611,667.696C842.672,674.159 839.113,680.323 834.985,686.1L834.982,686.102L824.802,685.681C820.147,691.492 814.865,696.773 809.054,701.429L809.475,711.608L809.474,711.611C803.697,715.74 797.533,719.298 791.069,722.237L791.066,722.237L782.461,716.783C775.523,719.487 768.309,721.421 760.948,722.547L756.223,731.573L756.22,731.575C749.153,732.262 742.036,732.262 734.968,731.575L734.966,731.573L730.24,722.547C722.88,721.421 715.666,719.487 708.728,716.783L700.123,722.237L700.119,722.237C693.656,719.298 687.492,715.74 681.715,711.611L681.713,711.608L682.134,701.429C676.323,696.773 671.042,691.492 666.386,685.681L656.206,686.102L656.204,686.1C652.075,680.323 648.516,674.159 645.578,667.696L645.578,667.692L651.032,659.087C648.327,652.149 646.394,644.935 645.268,637.574L636.242,632.849L636.24,632.847C635.553,625.779 635.553,618.662 636.24,611.595L636.242,611.592L645.268,606.867C646.394,599.506 648.327,592.292 651.032,585.354L645.578,576.749L645.578,576.746C648.516,570.282 652.075,564.118 656.204,558.341L656.206,558.34L666.386,558.761C671.042,552.949 676.323,547.668 682.134,543.012L681.713,532.833L681.715,532.83C687.492,528.702 693.656,525.143 700.119,522.204L700.123,522.204L708.728,527.659C715.666,524.954 722.88,523.021 730.24,521.894L734.966,512.868L734.968,512.866C742.036,512.18 749.153,512.18 756.22,512.866L756.223,512.868ZM735.086,628.21C734.505,627.181 734.138,626.09 733.858,625.104C733.366,623.38 733.7,621.471 735.005,620.16C735.681,619.481 735.987,618.515 735.823,617.57C735.66,616.626 734.952,615.604 734.114,615.139C733.684,614.901 733.219,614.753 732.709,614.716C731.725,614.646 730.818,615.168 730.151,615.895C729.485,616.622 729.229,617.635 729.471,618.591L729.484,618.649C729.939,620.45 729.143,622.232 727.789,623.471C727.155,624.301 726.314,624.991 725.257,625.535C725.105,625.613 724.929,625.631 724.764,625.585L712.003,622.083L686.2,647.574L695.375,682.665L730.352,692.265L756.155,666.774L753.38,656.161C753.351,656.05 753.298,655.947 753.224,655.859L752.834,655.392C751.871,654.24 750.221,653.944 748.918,654.688L747.047,655.757C745.599,656.583 743.849,656.689 742.313,656.043C740.776,655.397 739.628,654.072 739.206,652.459L739.205,652.458C738.784,650.845 739.137,649.129 740.16,647.813C741.183,646.497 742.76,645.733 744.426,645.744L746.392,645.758C748.016,645.769 749.413,644.61 749.7,643.011L749.777,642.587C749.791,642.506 749.788,642.423 749.767,642.344L746.98,631.683L735.499,628.531C735.324,628.483 735.176,628.368 735.086,628.21ZM757.205,621.25C758.387,621.261 759.515,621.489 760.51,621.739C762.248,622.176 763.734,623.419 764.218,625.205C764.468,626.13 765.151,626.878 766.051,627.208C766.951,627.539 768.169,627.402 769.011,626.943C769.457,626.7 769.8,626.349 770.08,625.938C770.635,625.123 770.634,624.074 770.338,623.134C770.042,622.193 769.292,621.465 768.344,621.196C768.343,621.194 768.309,621.185 768.301,621.183C766.515,620.676 765.619,618.991 764.908,617.306C764.597,616.329 764.386,615.263 764.437,614.077C764.445,613.905 764.518,613.743 764.64,613.622L774.053,604.323L764.879,569.231L729.901,559.632L704.099,585.123L713.274,620.214L723.852,623.117C723.963,623.148 724.079,623.153 724.192,623.133L724.792,623.029C726.27,622.771 727.352,621.491 727.359,619.989L727.369,617.835C727.377,616.168 728.16,614.6 729.488,613.592C730.816,612.584 732.538,612.252 734.145,612.693L734.147,612.694C735.754,613.135 737.064,614.299 737.692,615.842C738.32,617.386 738.194,619.134 737.35,620.572L736.356,622.267C735.534,623.668 735.84,625.458 737.081,626.506L737.41,626.784C737.472,626.837 737.546,626.876 737.625,626.897L748.251,629.814L756.721,621.447C756.85,621.32 757.024,621.249 757.205,621.25ZM752.131,643.589C751.533,644.609 750.774,645.474 750.063,646.212C748.819,647.503 747.001,648.173 745.212,647.704C744.284,647.461 743.296,647.682 742.561,648.298C741.827,648.914 741.278,650.04 741.319,650.998C741.34,651.498 741.438,651.975 741.659,652.425C742.093,653.31 743,653.833 743.963,654.044C744.926,654.255 745.931,653.967 746.636,653.278L746.676,653.238C748.004,651.941 750.738,651.721 751.866,652.023C752.857,652.288 753.775,652.777 754.765,653.435C754.904,653.528 755.005,653.669 755.048,653.831L758.432,666.626L793.437,676.126L819.166,650.561L809.891,615.496L774.887,605.996L767.105,613.728C767.024,613.809 766.961,613.907 766.922,614.015L766.714,614.587C766.202,615.998 766.775,617.573 768.074,618.326L769.937,619.407C771.38,620.243 772.35,621.703 772.564,623.356C772.777,625.009 772.209,626.668 771.026,627.843L771.025,627.844C769.843,629.019 768.182,629.576 766.53,629.353C764.879,629.129 763.425,628.15 762.598,626.703L761.622,624.997C760.815,623.587 759.111,622.962 757.584,623.517L757.179,623.664C757.102,623.692 757.032,623.736 756.974,623.794L749.157,631.561L752.201,643.071C752.247,643.246 752.222,643.432 752.131,643.589Z" style="fill:rgb(37,125,220);"/>
                    </g>
                    <g id="Shadow" transform="matrix(1.987429,0,0,1.987429,48.243741,-1301.644316)">
                        <path d="M230.505,757.861L307.97,836.381C307.082,839.669 306.048,842.918 304.87,846.118L294.477,848.513C291.387,855.67 287.519,862.465 282.942,868.775L286.188,878.935C281.5,884.703 276.264,890.002 270.554,894.76L260.355,891.637C254.101,896.29 247.354,900.241 240.235,903.417L237.966,913.839C231.022,916.49 223.838,918.462 216.515,919.727L209.243,911.923C203.054,912.644 196.816,912.819 190.602,912.448L130.085,854.405L130.149,854.356L162.964,873.301L195.843,854.318L195.843,842.836C195.843,842.716 195.817,842.598 195.765,842.489L195.494,841.913C194.824,840.491 193.232,839.754 191.714,840.163L189.537,840.75C187.852,841.204 186.052,840.848 184.667,839.786C183.282,838.725 182.47,837.079 182.47,835.334L182.47,835.333C182.47,833.588 183.281,831.943 184.666,830.882C186.05,829.821 187.849,829.464 189.534,829.917L191.521,830.451C193.163,830.892 194.884,830.088 195.599,828.545L195.788,828.136C195.825,828.058 195.843,827.973 195.843,827.887L195.843,816.353C195.843,816.353 186.698,811.073 185.052,810.121C184.887,810.026 184.767,809.87 184.718,809.687C184.402,808.491 184.32,807.289 184.296,806.216C184.256,804.34 185.099,802.496 186.768,801.513C187.632,801.004 188.197,800.107 188.282,799.107C188.367,798.108 187.92,796.885 187.194,796.193C186.822,795.838 186.39,795.565 185.883,795.393C184.906,795.061 183.849,795.349 182.982,795.909C182.114,796.469 181.587,797.427 181.578,798.459C181.578,798.501 181.577,798.513 181.577,798.522C181.56,800.465 180.283,802.06 178.584,802.955C178.109,803.206 177.29,803.915 176.323,804.152C175.646,804.318 174.845,804.301 174.845,804.301C174.845,804.301 173.819,803.587 172.65,802.973L164.737,795.784L174.69,801.555C174.794,801.615 174.91,801.651 175.03,801.661L175.665,801.714C177.231,801.845 178.665,800.834 179.07,799.316L179.651,797.137C180.1,795.451 181.308,794.07 182.92,793.401C184.532,792.732 186.363,792.852 187.874,793.724L187.876,793.725C189.386,794.597 190.405,796.123 190.632,797.852C190.859,799.582 190.268,801.319 189.034,802.551L187.577,804.005C186.374,805.206 186.21,807.099 187.189,808.489L187.449,808.858C187.498,808.928 187.562,808.987 187.637,809.03L197.626,814.797C197.626,814.797 206.771,809.516 208.418,808.567C208.583,808.472 208.778,808.446 208.961,808.495C210.155,808.819 211.237,809.349 212.178,809.865C213.823,810.768 214.998,812.421 215.015,814.357C215.023,815.36 215.518,816.298 216.341,816.871C217.165,817.445 218.435,817.628 219.409,817.387C219.925,817.259 220.365,816.994 220.758,816.651C221.535,815.973 221.812,814.911 221.761,813.88C221.71,812.849 221.144,811.913 220.255,811.39C220.254,811.388 220.223,811.37 220.216,811.365C218.541,810.379 218.08,808.435 217.805,806.541C217.749,805.469 217.818,804.333 218.184,803.146C218.238,802.974 218.354,802.829 218.51,802.739L230.505,795.814L230.505,757.861ZM164.747,793.811L164.39,793.487L164.747,793.295L164.747,793.811ZM197.908,829.774C197.032,830.649 196.034,831.323 195.119,831.883C193.517,832.861 191.498,833.058 189.811,832.109C188.936,831.617 187.876,831.579 186.969,832.009C186.062,832.438 185.209,833.433 184.996,834.414C184.885,834.926 184.859,835.435 184.963,835.949C185.168,836.961 185.948,837.73 186.867,838.198C187.787,838.667 188.881,838.642 189.777,838.131C189.817,838.106 189.821,838.105 189.828,838.101C191.517,837.139 194.343,837.641 195.406,838.245C196.339,838.775 197.139,839.514 197.967,840.442C198.084,840.573 198.149,840.742 198.149,840.918L198.189,854.771L231.122,873.66L263.947,854.584L263.839,816.618L230.905,797.729L220.978,803.499C220.874,803.559 220.785,803.642 220.717,803.741L220.355,804.265C219.463,805.558 219.625,807.305 220.741,808.412L222.343,810C223.582,811.228 224.178,812.964 223.957,814.694C223.735,816.425 222.72,817.954 221.212,818.831L221.21,818.832C219.702,819.708 217.872,819.833 216.259,819.17C214.645,818.506 213.433,817.13 212.978,815.445L212.441,813.459C211.998,811.818 210.437,810.734 208.744,810.891L208.295,810.933C208.21,810.941 208.127,810.967 208.053,811.01L198.081,816.806C198.081,816.806 198.111,827.366 198.115,829.267C198.116,829.457 198.041,829.639 197.908,829.774Z" style="fill:rgb(29,101,180);"/>
                    </g>
                </g>
                <g id="Open-Component-Model--White-" serif:id="Open Component Model (White)">
                    <g id="Open-Component-Model" serif:id="Open Component Model" transform="matrix(1,0,0,2.032065,-516.669698,-12917.672279)">
                        <g id="Model" transform="matrix(0.625012,0,0,0.675228,1360.719796,7527.602182)">
                            <path d="M65.802,431.527L65.802,527.608C65.802,529.762 65.052,531.583 63.554,533.071C62.055,534.559 60.147,535.303 57.831,535.303C55.515,535.303 53.625,534.559 52.16,533.071C50.695,531.583 49.963,529.762 49.963,527.608L49.963,409.903C49.963,407.877 50.763,406.088 52.364,404.536C53.965,402.984 55.958,402.208 58.342,402.208C59.636,402.208 60.982,402.509 62.378,403.111C63.775,403.713 64.882,404.552 65.699,405.628L116.237,476.637L167.475,405.628C169.314,403.222 171.63,402.082 174.423,402.208C176.603,402.272 178.511,403.016 180.146,404.441C181.781,405.866 182.598,407.687 182.598,409.903L182.598,527.608C182.598,529.762 181.798,531.583 180.197,533.071C178.596,534.559 176.569,535.303 174.117,535.303C171.596,535.303 169.536,534.559 167.935,533.071C166.334,531.583 165.533,529.762 165.533,527.608L165.533,432.504L122.309,493.503C121.56,494.453 120.606,495.245 119.448,495.878C118.29,496.512 117.064,496.797 115.77,496.733C114.543,496.797 113.317,496.512 112.091,495.878C110.865,495.245 109.877,494.453 109.128,493.503L65.802,431.527Z" style="fill:white;fill-rule:nonzero;"/>
                            <path d="M351.407,468.803C351.407,478.62 349.721,487.677 346.349,495.973C342.976,504.27 338.208,511.506 332.043,517.681C325.878,523.856 318.588,528.653 310.175,532.073C301.762,535.493 292.549,537.203 282.534,537.203C272.52,537.203 263.324,535.493 254.945,532.073C246.566,528.653 239.293,523.856 233.128,517.681C226.963,511.506 222.195,504.27 218.823,495.973C215.45,487.677 213.764,478.62 213.764,468.803C213.764,458.987 215.45,449.93 218.823,441.633C222.195,433.337 226.963,426.101 233.128,419.926C239.293,413.751 246.566,408.953 254.945,405.533C263.324,402.113 272.52,400.403 282.534,400.403C292.549,400.403 301.762,402.113 310.175,405.533C318.588,408.953 325.878,413.751 332.043,419.926C338.208,426.101 342.976,433.337 346.349,441.633C349.721,449.93 351.407,458.987 351.407,468.803ZM333.831,468.803C333.831,458.48 331.634,449.313 327.24,441.301C322.846,433.289 316.817,427.003 309.153,422.443C301.49,417.883 292.617,415.603 282.534,415.603C272.52,415.603 263.664,417.883 255.967,422.443C248.269,427.003 242.24,433.273 237.88,441.253C233.52,449.233 231.34,458.417 231.34,468.803C231.34,479.127 233.52,488.294 237.88,496.306C242.24,504.318 248.269,510.603 255.967,515.163C263.664,519.723 272.52,522.003 282.534,522.003C292.617,522.003 301.49,519.723 309.153,515.163C316.817,510.603 322.846,504.318 327.24,496.306C331.634,488.294 333.831,479.127 333.831,468.803Z" style="fill:white;fill-rule:nonzero;"/>
                            <path d="M441.84,402.303C451.854,402.303 460.642,404.061 468.203,407.576C475.765,411.091 482.066,415.952 487.107,422.158C492.148,428.365 495.912,435.474 498.399,443.486C500.885,451.498 502.128,459.937 502.128,468.803C502.128,481.027 499.897,492.173 495.435,502.243C490.973,512.313 484.297,520.341 475.407,526.326C466.517,532.311 455.328,535.303 441.84,535.303L390.85,535.303C388.534,535.303 386.575,534.559 384.974,533.071C383.373,531.583 382.573,529.762 382.573,527.608L382.573,409.998C382.573,407.845 383.373,406.024 384.974,404.536C386.575,403.048 388.534,402.303 390.85,402.303L441.84,402.303ZM399.638,417.028L399.638,520.578L439.796,520.578C450.355,520.578 458.922,518.235 465.495,513.548C472.069,508.862 476.889,502.592 479.954,494.738C483.02,486.885 484.553,478.24 484.553,468.803C484.553,461.963 483.701,455.424 481.998,449.186C480.295,442.948 477.638,437.422 474.028,432.608C470.417,427.795 465.785,423.995 460.131,421.208C454.477,418.422 447.698,417.028 439.796,417.028L399.638,417.028Z" style="fill:white;fill-rule:nonzero;"/>
                            <path d="M550.359,520.578L614.327,520.578C616.643,520.578 618.602,521.323 620.202,522.811C621.803,524.299 622.604,526.025 622.604,527.988C622.604,530.142 621.803,531.899 620.202,533.261C618.602,534.623 616.643,535.303 614.327,535.303L541.572,535.303C539.255,535.303 537.297,534.559 535.696,533.071C534.095,531.583 533.295,529.762 533.295,527.608L533.295,409.998C533.295,407.845 534.095,406.024 535.696,404.536C537.297,403.048 539.255,402.303 541.572,402.303L614.327,402.303C616.643,402.303 618.602,403.016 620.202,404.441C621.803,405.866 622.604,407.655 622.604,409.808C622.604,411.962 621.803,413.703 620.202,415.033C618.602,416.363 616.643,417.028 614.327,417.028L550.359,417.028L550.359,459.683L605.13,459.683C607.446,459.683 609.405,460.396 611.006,461.821C612.607,463.246 613.407,465.035 613.407,467.188C613.407,469.342 612.607,471.083 611.006,472.413C609.405,473.743 607.446,474.408 605.13,474.408L550.359,474.408L550.359,520.578Z" style="fill:white;fill-rule:nonzero;"/>
                            <path d="M670.835,520.388L732.758,520.388C735.075,520.388 737.033,521.101 738.634,522.526C740.235,523.951 741.035,525.74 741.035,527.893C741.035,530.047 740.235,531.82 738.634,533.213C737.033,534.607 735.075,535.303 732.758,535.303L662.047,535.303C659.663,535.303 657.687,534.559 656.12,533.071C654.553,531.583 653.77,529.762 653.77,527.608L653.77,409.998C653.77,407.845 654.587,406.024 656.222,404.536C657.857,403.048 659.935,402.303 662.456,402.303C664.704,402.303 666.662,403.048 668.331,404.536C670,406.024 670.835,407.845 670.835,409.998L670.835,520.388Z" style="fill:white;fill-rule:nonzero;"/>
                        </g>
                        <g id="Component" transform="matrix(1.182628,0,0,1.182628,354.354682,7134.689135)">
                            <path d="M144.466,411.043C146.619,412.247 147.87,413.973 148.218,416.221C148.567,418.469 147.981,420.575 146.461,422.538C145.321,424.122 143.864,424.993 142.091,425.151C140.317,425.309 138.544,424.945 136.771,424.058C132.591,421.525 128.094,419.53 123.281,418.073C118.467,416.617 113.369,415.888 107.986,415.888C100.512,415.888 93.672,417.171 87.466,419.736C81.259,422.301 75.876,425.943 71.316,430.661C66.756,435.379 63.225,440.968 60.723,447.428C58.222,453.888 56.971,461.013 56.971,468.803C56.971,477.163 58.285,484.637 60.913,491.223C63.542,497.81 67.167,503.415 71.791,508.038C76.414,512.662 81.813,516.177 87.988,518.583C94.163,520.99 100.829,522.193 107.986,522.193C113.242,522.193 118.277,521.497 123.091,520.103C127.904,518.71 132.432,516.715 136.676,514.118C138.449,513.168 140.238,512.82 142.043,513.073C143.848,513.327 145.352,514.245 146.556,515.828C148.139,517.855 148.725,519.961 148.313,522.146C147.902,524.331 146.682,525.962 144.656,527.038C141.489,528.938 137.879,530.664 133.826,532.216C129.772,533.768 125.561,534.987 121.191,535.873C116.821,536.76 112.419,537.203 107.986,537.203C98.866,537.203 90.268,535.62 82.193,532.453C74.118,529.287 66.962,524.743 60.723,518.821C54.485,512.899 49.577,505.727 45.998,497.303C42.42,488.88 40.631,479.38 40.631,468.803C40.631,458.987 42.341,449.946 45.761,441.681C49.181,433.416 53.947,426.243 60.058,420.163C66.17,414.083 73.311,409.349 81.481,405.961C89.651,402.573 98.486,400.878 107.986,400.878C114.636,400.878 121.08,401.765 127.318,403.538C133.557,405.312 139.272,407.813 144.466,411.043Z" style="fill:white;fill-rule:nonzero;"/>
                            <path d="M294.851,468.803C294.851,478.62 293.283,487.677 290.148,495.973C287.013,504.27 282.58,511.506 276.848,517.681C271.117,523.856 264.34,528.653 256.518,532.073C248.697,535.493 240.131,537.203 230.821,537.203C221.511,537.203 212.961,535.493 205.171,532.073C197.381,528.653 190.62,523.856 184.888,517.681C179.157,511.506 174.723,504.27 171.588,495.973C168.453,487.677 166.886,478.62 166.886,468.803C166.886,458.987 168.453,449.93 171.588,441.633C174.723,433.337 179.157,426.101 184.888,419.926C190.62,413.751 197.381,408.953 205.171,405.533C212.961,402.113 221.511,400.403 230.821,400.403C240.131,400.403 248.697,402.113 256.518,405.533C264.34,408.953 271.117,413.751 276.848,419.926C282.58,426.101 287.013,433.337 290.148,441.633C293.283,449.93 294.851,458.987 294.851,468.803ZM278.511,468.803C278.511,458.48 276.468,449.313 272.383,441.301C268.298,433.289 262.693,427.003 255.568,422.443C248.443,417.883 240.194,415.603 230.821,415.603C221.511,415.603 213.277,417.883 206.121,422.443C198.964,427.003 193.359,433.273 189.306,441.253C185.252,449.233 183.226,458.417 183.226,468.803C183.226,479.127 185.252,488.294 189.306,496.306C193.359,504.318 198.964,510.603 206.121,515.163C213.277,519.723 221.511,522.003 230.821,522.003C240.194,522.003 248.443,519.723 255.568,515.163C262.693,510.603 268.298,504.318 272.383,496.306C276.468,488.294 278.511,479.127 278.511,468.803Z" style="fill:white;fill-rule:nonzero;"/>
                            <path d="M338.551,431.527L338.551,527.608C338.551,529.762 337.854,531.583 336.461,533.071C335.067,534.559 333.294,535.303 331.141,535.303C328.987,535.303 327.23,534.559 325.868,533.071C324.507,531.583 323.826,529.762 323.826,527.608L323.826,409.903C323.826,407.877 324.57,406.088 326.058,404.536C327.547,402.984 329.399,402.208 331.616,402.208C332.819,402.208 334.07,402.509 335.368,403.111C336.667,403.713 337.696,404.552 338.456,405.628L385.44,476.637L433.076,405.628C434.786,403.222 436.939,402.082 439.536,402.208C441.562,402.272 443.336,403.016 444.856,404.441C446.376,405.866 447.136,407.687 447.136,409.903L447.136,527.608C447.136,529.762 446.392,531.583 444.903,533.071C443.415,534.559 441.531,535.303 439.251,535.303C436.907,535.303 434.992,534.559 433.503,533.071C432.015,531.583 431.271,529.762 431.271,527.608L431.271,432.504L391.086,493.503C390.389,494.453 389.502,495.245 388.426,495.878C387.349,496.512 386.209,496.797 385.006,496.733C383.866,496.797 382.726,496.512 381.586,495.878C380.446,495.245 379.527,494.453 378.831,493.503L338.551,431.527Z" style="fill:white;fill-rule:nonzero;"/>
                            <path d="M499.101,482.008L499.101,527.608C499.101,529.762 498.388,531.583 496.963,533.071C495.538,534.559 493.749,535.303 491.596,535.303C489.379,535.303 487.59,534.559 486.228,533.071C484.867,531.583 484.186,529.762 484.186,527.608L484.186,409.998C484.186,407.845 484.93,406.024 486.418,404.536C487.907,403.048 489.727,402.303 491.881,402.303L536.341,402.303C543.244,402.303 549.482,404.013 555.056,407.433C560.629,410.853 565.047,415.54 568.308,421.493C571.57,427.447 573.201,434.223 573.201,441.823C573.201,449.297 571.57,456.073 568.308,462.153C565.047,468.233 560.629,473.063 555.056,476.641C549.482,480.219 543.244,482.008 536.341,482.008L499.101,482.008ZM499.101,417.028L499.101,467.378L536.341,467.378C540.457,467.378 544.115,466.223 547.313,463.911C550.512,461.599 553.061,458.496 554.961,454.601C556.861,450.706 557.811,446.447 557.811,441.823C557.811,437.073 556.861,432.846 554.961,429.141C553.061,425.436 550.512,422.491 547.313,420.306C544.115,418.121 540.457,417.028 536.341,417.028L499.101,417.028Z" style="fill:white;fill-rule:nonzero;"/>
                            <path d="M721.591,468.803C721.591,478.62 720.023,487.677 716.888,495.973C713.753,504.27 709.32,511.506 703.588,517.681C697.857,523.856 691.08,528.653 683.258,532.073C675.437,535.493 666.871,537.203 657.561,537.203C648.251,537.203 639.701,535.493 631.911,532.073C624.121,528.653 617.36,523.856 611.628,517.681C605.897,511.506 601.463,504.27 598.328,495.973C595.193,487.677 593.626,478.62 593.626,468.803C593.626,458.987 595.193,449.93 598.328,441.633C601.463,433.337 605.897,426.101 611.628,419.926C617.36,413.751 624.121,408.953 631.911,405.533C639.701,402.113 648.251,400.403 657.561,400.403C666.871,400.403 675.437,402.113 683.258,405.533C691.08,408.953 697.857,413.751 703.588,419.926C709.32,426.101 713.753,433.337 716.888,441.633C720.023,449.93 721.591,458.987 721.591,468.803ZM705.251,468.803C705.251,458.48 703.208,449.313 699.123,441.301C695.038,433.289 689.433,427.003 682.308,422.443C675.183,417.883 666.934,415.603 657.561,415.603C648.251,415.603 640.017,417.883 632.861,422.443C625.704,427.003 620.099,433.273 616.046,441.253C611.992,449.233 609.966,458.417 609.966,468.803C609.966,479.127 611.992,488.294 616.046,496.306C620.099,504.318 625.704,510.603 632.861,515.163C640.017,519.723 648.251,522.003 657.561,522.003C666.934,522.003 675.183,519.723 682.308,515.163C689.433,510.603 695.038,504.318 699.123,496.306C703.208,488.294 705.251,479.127 705.251,468.803Z" style="fill:white;fill-rule:nonzero;"/>
                            <path d="M764.626,430.317L764.626,528.368C764.626,530.332 763.961,531.978 762.631,533.308C761.301,534.638 759.591,535.303 757.501,535.303C755.411,535.303 753.732,534.638 752.466,533.308C751.199,531.978 750.566,530.332 750.566,528.368L750.566,409.998C750.566,407.655 751.31,405.787 752.798,404.393C754.287,403 756.044,402.303 758.071,402.303C759.211,402.303 760.382,402.525 761.586,402.968C762.789,403.412 763.707,404.108 764.341,405.058L842.051,507.934L842.051,409.428C842.051,407.402 842.716,405.708 844.046,404.346C845.376,402.984 847.054,402.303 849.081,402.303C851.171,402.303 852.849,402.984 854.116,404.346C855.382,405.708 856.016,407.402 856.016,409.428L856.016,527.418C856.016,529.762 855.256,531.662 853.736,533.118C852.216,534.575 850.379,535.303 848.226,535.303C847.149,535.303 846.041,535.098 844.901,534.686C843.761,534.274 842.874,533.688 842.241,532.928L764.626,430.317Z" style="fill:white;fill-rule:nonzero;"/>
                            <path d="M908.931,520.578L968.401,520.578C970.554,520.578 972.375,521.323 973.863,522.811C975.352,524.299 976.096,526.025 976.096,527.988C976.096,530.142 975.352,531.899 973.863,533.261C972.375,534.623 970.554,535.303 968.401,535.303L900.761,535.303C898.607,535.303 896.787,534.559 895.298,533.071C893.81,531.583 893.066,529.762 893.066,527.608L893.066,409.998C893.066,407.845 893.81,406.024 895.298,404.536C896.787,403.048 898.607,402.303 900.761,402.303L968.401,402.303C970.554,402.303 972.375,403.016 973.863,404.441C975.352,405.866 976.096,407.655 976.096,409.808C976.096,411.962 975.352,413.703 973.863,415.033C972.375,416.363 970.554,417.028 968.401,417.028L908.931,417.028L908.931,459.683L959.851,459.683C962.004,459.683 963.825,460.396 965.313,461.821C966.802,463.246 967.546,465.035 967.546,467.188C967.546,469.342 966.802,471.083 965.313,472.413C963.825,473.743 962.004,474.408 959.851,474.408L908.931,474.408L908.931,520.578Z" style="fill:white;fill-rule:nonzero;"/>
                            <path d="M1019.131,430.317L1019.131,528.368C1019.131,530.332 1018.466,531.978 1017.136,533.308C1015.806,534.638 1014.096,535.303 1012.006,535.303C1009.916,535.303 1008.237,534.638 1006.971,533.308C1005.704,531.978 1005.071,530.332 1005.071,528.368L1005.071,409.998C1005.071,407.655 1005.815,405.787 1007.303,404.393C1008.792,403 1010.549,402.303 1012.576,402.303C1013.716,402.303 1014.887,402.525 1016.091,402.968C1017.294,403.412 1018.212,404.108 1018.846,405.058L1096.556,507.934L1096.556,409.428C1096.556,407.402 1097.221,405.708 1098.551,404.346C1099.881,402.984 1101.559,402.303 1103.586,402.303C1105.676,402.303 1107.354,402.984 1108.621,404.346C1109.887,405.708 1110.521,407.402 1110.521,409.428L1110.521,527.418C1110.521,529.762 1109.761,531.662 1108.241,533.118C1106.721,534.575 1104.884,535.303 1102.731,535.303C1101.654,535.303 1100.546,535.098 1099.406,534.686C1098.266,534.274 1097.379,533.688 1096.746,532.928L1019.131,430.317Z" style="fill:white;fill-rule:nonzero;"/>
                            <path d="M1180.916,416.838L1144.816,416.838C1142.662,416.838 1140.842,416.158 1139.353,414.796C1137.865,413.434 1137.121,411.677 1137.121,409.523C1137.121,407.37 1137.865,405.628 1139.353,404.298C1140.842,402.968 1142.662,402.303 1144.816,402.303L1233.166,402.303C1235.319,402.303 1237.14,402.984 1238.628,404.346C1240.117,405.708 1240.861,407.465 1240.861,409.618C1240.861,411.835 1240.117,413.593 1238.628,414.891C1237.14,416.189 1235.319,416.838 1233.166,416.838L1197.066,416.838L1197.066,527.608C1197.066,529.762 1196.29,531.583 1194.738,533.071C1193.187,534.559 1191.239,535.303 1188.896,535.303C1186.552,535.303 1184.637,534.559 1183.148,533.071C1181.66,531.583 1180.916,529.762 1180.916,527.608L1180.916,416.838Z" style="fill:white;fill-rule:nonzero;"/>
                        </g>
                        <g id="Open" transform="matrix(0.608467,0,0,0.621573,377.188117,7246.283833)">
                            <path d="M171.536,468.803C171.536,478.62 169.935,487.677 166.733,495.973C163.53,504.27 159.001,511.506 153.146,517.681C147.291,523.856 140.368,528.653 132.378,532.073C124.388,535.493 115.638,537.203 106.127,537.203C96.617,537.203 87.882,535.493 79.925,532.073C71.967,528.653 65.06,523.856 59.205,517.681C53.35,511.506 48.821,504.27 45.619,495.973C42.416,487.677 40.815,478.62 40.815,468.803C40.815,458.987 42.416,449.93 45.619,441.633C48.821,433.337 53.35,426.101 59.205,419.926C65.06,413.751 71.967,408.953 79.925,405.533C87.882,402.113 96.617,400.403 106.127,400.403C115.638,400.403 124.388,402.113 132.378,405.533C140.368,408.953 147.291,413.751 153.146,419.926C159.001,426.101 163.53,433.337 166.733,441.633C169.935,449.93 171.536,458.987 171.536,468.803ZM154.844,468.803C154.844,458.48 152.758,449.313 148.585,441.301C144.412,433.289 138.686,427.003 131.408,422.443C124.129,417.883 115.702,415.603 106.127,415.603C96.617,415.603 88.206,417.883 80.895,422.443C73.584,427.003 67.859,433.273 63.718,441.253C59.577,449.233 57.507,458.417 57.507,468.803C57.507,479.127 59.577,488.294 63.718,496.306C67.859,504.318 73.584,510.603 80.895,515.163C88.206,519.723 96.617,522.003 106.127,522.003C115.702,522.003 124.129,519.723 131.408,515.163C138.686,510.603 144.412,504.318 148.585,496.306C152.758,488.294 154.844,479.127 154.844,468.803Z" style="fill:white;fill-rule:nonzero;"/>
                            <path d="M216.372,482.008L216.372,527.608C216.372,529.762 215.644,531.583 214.188,533.071C212.733,534.559 210.905,535.303 208.705,535.303C206.441,535.303 204.613,534.559 203.222,533.071C201.831,531.583 201.135,529.762 201.135,527.608L201.135,409.998C201.135,407.845 201.896,406.024 203.416,404.536C204.936,403.048 206.797,402.303 208.996,402.303L254.414,402.303C261.466,402.303 267.839,404.013 273.532,407.433C279.225,410.853 283.738,415.54 287.07,421.493C290.402,427.447 292.068,434.223 292.068,441.823C292.068,449.297 290.402,456.073 287.07,462.153C283.738,468.233 279.225,473.063 273.532,476.641C267.839,480.219 261.466,482.008 254.414,482.008L216.372,482.008ZM216.372,417.028L216.372,467.378L254.414,467.378C258.619,467.378 262.356,466.223 265.623,463.911C268.89,461.599 271.494,458.496 273.435,454.601C275.376,450.706 276.346,446.447 276.346,441.823C276.346,437.073 275.376,432.846 273.435,429.141C271.494,425.436 268.89,422.491 265.623,420.306C262.356,418.121 258.619,417.028 254.414,417.028L216.372,417.028Z" style="fill:white;fill-rule:nonzero;"/>
                            <g transform="matrix(1,0,0,1,0,1.608821)">
                                <path d="M337.389,520.578L398.14,520.578C400.339,520.578 402.199,521.323 403.72,522.811C405.24,524.299 406,526.025 406,527.988C406,530.142 405.24,531.899 403.72,533.261C402.199,534.623 400.339,535.303 398.14,535.303L329.043,535.303C326.843,535.303 324.983,534.559 323.462,533.071C321.942,531.583 321.182,529.762 321.182,527.608L321.182,409.998C321.182,407.845 321.942,406.024 323.462,404.536C324.983,403.048 326.843,402.303 329.043,402.303L398.14,402.303C400.339,402.303 402.199,403.016 403.72,404.441C405.24,405.866 406,407.655 406,409.808C406,411.962 405.24,413.703 403.72,415.033C402.199,416.363 400.339,417.028 398.14,417.028L337.389,417.028L337.389,459.683L389.405,459.683C391.605,459.683 393.465,460.396 394.986,461.821C396.506,463.246 397.266,465.035 397.266,467.188C397.266,469.342 396.506,471.083 394.986,472.413C393.465,473.743 391.605,474.408 389.405,474.408L337.389,474.408L337.389,520.578Z" style="fill:white;fill-rule:nonzero;"/>
                            </g>
                            <path d="M449.962,430.317L449.962,528.368C449.962,530.332 449.283,531.978 447.924,533.308C446.566,534.638 444.819,535.303 442.684,535.303C440.549,535.303 438.834,534.638 437.54,533.308C436.246,531.978 435.599,530.332 435.599,528.368L435.599,409.998C435.599,407.655 436.36,405.787 437.88,404.393C439.4,403 441.196,402.303 443.266,402.303C444.431,402.303 445.628,402.525 446.857,402.968C448.086,403.412 449.024,404.108 449.671,405.058L529.055,507.934L529.055,409.428C529.055,407.402 529.734,405.708 531.093,404.346C532.452,402.984 534.166,402.303 536.237,402.303C538.372,402.303 540.086,402.984 541.38,404.346C542.674,405.708 543.321,407.402 543.321,409.428L543.321,527.418C543.321,529.762 542.545,531.662 540.992,533.118C539.439,534.575 537.563,535.303 535.363,535.303C534.263,535.303 533.131,535.098 531.966,534.686C530.802,534.274 529.896,533.688 529.249,532.928L449.962,430.317Z" style="fill:white;fill-rule:nonzero;"/>
                        </g>
                    </g>
                </g>
            </g>
        </g>
    </g>
</svg>
