<svg xmlns="http://www.w3.org/2000/svg" xml:space="preserve" style="fill-rule:evenodd;clip-rule:evenodd;stroke-linejoin:round;stroke-miterlimit:2" viewBox="0 0 2244 1715">
    <path d="M-7.986 6326.045h2243.083v1714.924H-7.986z" style="fill:none" transform="translate(7.986 -6326.045)"/>
    <path d="M65.802 431.527v96.081q0 3.231-2.248 5.463t-5.723 2.232-5.671-2.232-2.197-5.463V409.903q0-3.039 2.401-5.367 2.402-2.328 5.978-2.328 1.941 0 4.036.903 2.096.903 3.321 2.517l50.538 71.009 51.238-71.009q2.758-3.609 6.948-3.42 3.27.096 5.723 2.233t2.452 5.462v117.705q0 3.231-2.401 5.463-2.402 2.232-6.08 2.232-3.781 0-6.182-2.232t-2.402-5.463v-95.104l-43.224 60.999q-1.124 1.425-2.861 2.375a6.8 6.8 0 0 1-3.678.855q-1.84.096-3.679-.855-1.84-.95-2.963-2.375zm285.605 37.276q0 14.726-5.058 27.17-5.059 12.446-14.306 21.708t-21.868 14.392q-12.619 5.13-27.641 5.13-15.02 0-27.589-5.13t-21.817-14.392-14.305-21.708q-5.06-12.444-5.059-27.17 0-14.724 5.059-27.17 5.058-12.444 14.305-21.707t21.817-14.393q12.568-5.13 27.589-5.13 15.022 0 27.641 5.13 12.62 5.13 21.868 14.393t14.306 21.707q5.058 12.446 5.058 27.17m-17.576 0q0-15.484-6.591-27.502t-18.087-18.858-26.619-6.84q-15.021 0-26.567 6.84-11.547 6.84-18.087 18.81t-6.54 27.55q0 15.486 6.54 27.503t18.087 18.857 26.567 6.84q15.125 0 26.619-6.84 11.496-6.84 18.087-18.857t6.591-27.503m108.009-66.5q15.021 0 26.363 5.273 11.343 5.273 18.904 14.582t11.292 21.328q3.729 12.018 3.729 25.317 0 18.336-6.693 33.44-6.693 15.105-20.028 24.083t-33.567 8.977h-50.99q-3.474 0-5.876-2.232-2.401-2.232-2.401-5.463v-117.61q0-3.23 2.401-5.462 2.402-2.233 5.876-2.233zm-42.202 14.725v103.55h40.158q15.839 0 25.699-7.03 9.861-7.029 14.459-18.81 4.599-11.78 4.599-25.935 0-10.26-2.555-19.617t-7.97-16.578-13.897-11.4-20.335-4.18zm150.721 103.55h63.968q3.475 0 5.875 2.233 2.402 2.232 2.402 5.177 0 3.23-2.402 5.273-2.4 2.043-5.875 2.042h-72.755q-3.475 0-5.876-2.232t-2.401-5.463v-117.61q0-3.23 2.401-5.462 2.401-2.233 5.876-2.233h72.755q3.475 0 5.875 2.138 2.402 2.137 2.402 5.367t-2.402 5.225q-2.4 1.995-5.875 1.995h-63.968v42.655h54.771q3.474 0 5.876 2.138 2.401 2.137 2.401 5.367t-2.401 5.225-5.876 1.995h-54.771zm120.476-.19h61.923q3.475 0 5.876 2.138t2.401 5.367-2.401 5.32-5.876 2.09h-70.711q-3.576 0-5.927-2.232t-2.35-5.463v-117.61q0-3.23 2.452-5.462 2.452-2.233 6.234-2.233 3.372 0 5.875 2.233t2.504 5.462z" style="fill-rule:nonzero" transform="matrix(.62501 0 0 .67523 1368.705 1201.557)"/>
    <path d="M144.466 411.043q3.23 1.806 3.752 5.178.523 3.372-1.757 6.317-1.71 2.376-4.37 2.613t-5.32-1.093q-6.27-3.8-13.49-5.985-7.22-2.184-15.295-2.185-11.211 0-20.52 3.848-9.31 3.848-16.15 10.925t-10.593 16.767q-3.752 9.69-3.752 21.375 0 12.54 3.942 22.42t10.878 16.815q6.935 6.936 16.197 10.545t19.998 3.61q7.884 0 15.105-2.09a55.4 55.4 0 0 0 13.585-5.985q2.66-1.425 5.367-1.045t4.513 2.755q2.375 3.04 1.757 6.318-.617 3.278-3.657 4.892-4.75 2.85-10.83 5.178a79.4 79.4 0 0 1-12.635 3.657 66.2 66.2 0 0 1-13.205 1.33q-13.68 0-25.793-4.75-12.112-4.749-21.47-13.632t-14.725-21.518-5.367-28.5q0-14.724 5.13-27.122t14.297-21.518q9.168-9.12 21.423-14.202t26.505-5.083q9.975 0 19.332 2.66t17.148 7.505m150.385 57.76q0 14.726-4.703 27.17-4.702 12.446-13.3 21.708-8.597 9.262-20.33 14.392t-25.697 5.13q-13.965 0-25.65-5.13t-20.283-14.392-13.3-21.708q-4.702-12.444-4.702-27.17 0-14.724 4.702-27.17 4.703-12.444 13.3-21.707t20.283-14.393 25.65-5.13 25.697 5.13 20.33 14.393 13.3 21.707q4.703 12.446 4.703 27.17m-16.34 0q0-15.484-6.128-27.502-6.127-12.018-16.815-18.858-10.687-6.84-24.747-6.84-13.966 0-24.7 6.84-10.736 6.84-16.815 18.81t-6.08 27.55q0 15.486 6.08 27.503t16.815 18.857 24.7 6.84q14.06 0 24.747-6.84t16.815-18.857 6.128-27.503m60.04-37.276v96.081q0 3.231-2.09 5.463t-5.32 2.232-5.273-2.232q-2.042-2.232-2.042-5.463V409.903q0-3.039 2.232-5.367t5.558-2.328q1.805 0 3.752.903 1.948.903 3.088 2.517l46.984 71.009 47.636-71.009q2.565-3.609 6.46-3.42 3.04.096 5.32 2.233t2.28 5.462v117.705q0 3.231-2.233 5.463t-5.652 2.232q-3.515 0-5.748-2.232t-2.232-5.463v-95.104l-40.185 60.999a8.8 8.8 0 0 1-2.66 2.375q-1.615.951-3.42.855-1.71.096-3.42-.855-1.71-.95-2.755-2.375zm160.55 50.481v45.6q0 3.231-2.138 5.463t-5.367 2.232q-3.325 0-5.368-2.232-2.042-2.232-2.042-5.463v-117.61q0-3.23 2.232-5.462 2.233-2.233 5.463-2.233h44.46q10.354 0 18.715 5.13 8.36 5.13 13.252 14.06t4.893 20.33q0 11.21-4.893 20.33t-13.252 14.488q-8.36 5.367-18.715 5.367zm0-64.98v50.35h37.24q6.175 0 10.972-3.467 4.798-3.468 7.648-9.31t2.85-12.778q0-7.125-2.85-12.682t-7.648-8.835-10.972-3.278zm222.49 51.775q0 14.726-4.703 27.17-4.702 12.446-13.3 21.708-8.597 9.262-20.33 14.392t-25.697 5.13-25.65-5.13q-11.685-5.13-20.283-14.392-8.597-9.263-13.3-21.708-4.702-12.444-4.702-27.17 0-14.724 4.702-27.17 4.703-12.444 13.3-21.707t20.283-14.393 25.65-5.13 25.697 5.13 20.33 14.393 13.3 21.707q4.703 12.446 4.703 27.17m-16.34 0q0-15.484-6.128-27.502t-16.815-18.858-24.747-6.84q-13.966 0-24.7 6.84-10.736 6.84-16.815 18.81t-6.08 27.55q0 15.486 6.08 27.503t16.815 18.857 24.7 6.84q14.06 0 24.747-6.84 10.688-6.84 16.815-18.857t6.128-27.503m59.375-38.486v98.051q0 2.946-1.995 4.94t-5.13 1.995-5.035-1.995-1.9-4.94v-118.37q0-3.514 2.232-5.605 2.233-2.09 5.273-2.09 1.71 0 3.515.665 1.804.666 2.755 2.09l77.71 102.876v-98.506q0-3.039 1.995-5.082t5.035-2.043q3.135 0 5.035 2.043t1.9 5.082v117.99q0 3.516-2.28 5.7t-5.51 2.185q-1.615 0-3.325-.617-1.71-.618-2.66-1.758zm144.305 90.261h59.47q3.23 0 5.462 2.233 2.233 2.232 2.233 5.177 0 3.23-2.233 5.273t-5.462 2.042h-67.64q-3.23 0-5.463-2.232t-2.232-5.463v-117.61q0-3.23 2.232-5.462 2.233-2.233 5.463-2.233h67.64q3.23 0 5.462 2.138 2.233 2.137 2.233 5.367t-2.233 5.225-5.462 1.995h-59.47v42.655h50.92q3.23 0 5.462 2.138 2.233 2.137 2.233 5.367t-2.233 5.225-5.462 1.995h-50.92zm110.2-90.261v98.051q0 2.946-1.995 4.94t-5.13 1.995-5.035-1.995-1.9-4.94v-118.37q0-3.514 2.232-5.605 2.233-2.09 5.273-2.09 1.71 0 3.515.665 1.804.666 2.755 2.09l77.71 102.876v-98.506q0-3.039 1.995-5.082t5.035-2.043q3.135 0 5.035 2.043t1.9 5.082v117.99q0 3.516-2.28 5.7t-5.51 2.185q-1.615 0-3.325-.617-1.71-.618-2.66-1.758zm161.785-13.479h-36.1q-3.23 0-5.463-2.042-2.232-2.043-2.232-5.273t2.232-5.225 5.463-1.995h88.35q3.23 0 5.462 2.043 2.233 2.043 2.233 5.272 0 3.326-2.233 5.273t-5.462 1.947h-36.1v110.77q0 3.231-2.328 5.463t-5.842 2.232-5.748-2.232q-2.232-2.232-2.232-5.463z" style="fill-rule:nonzero" transform="translate(362.34 808.644)scale(1.18263)"/>
    <path d="M171.536 468.803q0 14.726-4.803 27.17-4.804 12.446-13.587 21.708t-20.768 14.392-26.251 5.13-26.202-5.13-20.72-14.392-13.586-21.708q-4.804-12.444-4.804-27.17 0-14.724 4.804-27.17 4.803-12.444 13.586-21.707t20.72-14.393 26.202-5.13 26.251 5.13 20.768 14.393 13.587 21.707q4.803 12.446 4.803 27.17m-16.692 0q0-15.484-6.259-27.502t-17.177-18.858-25.281-6.84q-14.265 0-25.232 6.84t-17.177 18.81-6.211 27.55q0 15.486 6.211 27.503t17.177 18.857 25.232 6.84q14.362 0 25.281-6.84 10.917-6.84 17.177-18.857t6.259-27.503m61.528 13.205v45.6q0 3.231-2.184 5.463-2.183 2.232-5.483 2.232-3.396 0-5.483-2.232t-2.087-5.463v-117.61q0-3.23 2.281-5.462 2.28-2.233 5.58-2.233h45.418q10.578 0 19.118 5.13t13.538 14.06 4.998 20.33q0 11.21-4.998 20.33t-13.538 14.488-19.118 5.367zm0-64.98v50.35h38.042q6.308 0 11.209-3.467t7.812-9.31q2.911-5.842 2.911-12.778 0-7.125-2.911-12.682t-7.812-8.835-11.209-3.278z" style="fill-rule:nonzero" transform="matrix(.60847 0 0 .62157 385.174 920.239)"/>
    <path d="M337.389 520.578h60.751q3.298 0 5.58 2.233 2.28 2.232 2.28 5.177 0 3.23-2.28 5.273-2.281 2.043-5.58 2.042h-69.097q-3.3 0-5.581-2.232-2.28-2.232-2.28-5.463v-117.61q0-3.23 2.28-5.462 2.281-2.233 5.581-2.233h69.097q3.298 0 5.58 2.138 2.28 2.137 2.28 5.367t-2.28 5.225q-2.281 1.995-5.58 1.995h-60.751v42.655h52.016q3.3 0 5.581 2.138 2.28 2.137 2.28 5.367t-2.28 5.225-5.581 1.995h-52.016z" style="fill-rule:nonzero" transform="matrix(.60847 0 0 .62157 385.174 921.239)"/>
    <path d="M449.962 430.317v98.051q0 2.946-2.038 4.94t-5.24 1.995-5.144-1.995-1.941-4.94v-118.37q0-3.514 2.281-5.605 2.28-2.09 5.386-2.09 1.748 0 3.591.665 1.844.666 2.814 2.09l79.384 102.876v-98.506q0-3.039 2.038-5.082t5.144-2.043q3.202 0 5.143 2.043t1.941 5.082v117.99q0 3.516-2.329 5.7t-5.629 2.185q-1.65 0-3.397-.617-1.746-.618-2.717-1.758z" style="fill-rule:nonzero" transform="matrix(.60847 0 0 .62157 385.174 920.239)"/>
    <path d="m756.223 512.868 4.725 9.026a101.5 101.5 0 0 1 21.513 5.765l8.605-5.455h.003a110 110 0 0 1 18.405 10.626l.001.003-.421 10.179a101.5 101.5 0 0 1 15.748 15.749l10.18-.421.003.001a110 110 0 0 1 10.626 18.405v.003l-5.455 8.605a101.5 101.5 0 0 1 5.765 21.513l9.026 4.725.002.003c.686 7.067.686 14.184 0 21.252l-.002.002-9.026 4.725a101.5 101.5 0 0 1-5.765 21.513l5.455 8.605v.004a110 110 0 0 1-10.626 18.404l-.003.002-10.18-.421a101.5 101.5 0 0 1-15.748 15.748l.421 10.179-.001.003a110 110 0 0 1-18.405 10.626h-.003l-8.605-5.454a101.5 101.5 0 0 1-21.513 5.764l-4.725 9.026-.003.002c-7.067.687-14.184.687-21.252 0l-.002-.002-4.726-9.026a101.5 101.5 0 0 1-21.512-5.764l-8.605 5.454h-.004a110 110 0 0 1-18.404-10.626l-.002-.003.421-10.179a101.5 101.5 0 0 1-15.748-15.748l-10.18.421-.002-.002a110 110 0 0 1-10.626-18.404v-.004l5.454-8.605a101.5 101.5 0 0 1-5.764-21.513l-9.026-4.725-.002-.002a110 110 0 0 1 0-21.252l.002-.003 9.026-4.725a101.5 101.5 0 0 1 5.764-21.513l-5.454-8.605v-.003a110 110 0 0 1 10.626-18.405l.002-.001 10.18.421a101.5 101.5 0 0 1 15.748-15.749l-.421-10.179.002-.003a110 110 0 0 1 18.404-10.626h.004l8.605 5.455a101.5 101.5 0 0 1 21.512-5.765l4.726-9.026.002-.002a110 110 0 0 1 21.252 0zM735.086 628.21c-.581-1.029-.948-2.12-1.228-3.106-.492-1.724-.158-3.633 1.147-4.944a2.96 2.96 0 0 0 .818-2.59c-.163-.944-.871-1.966-1.709-2.431a3.4 3.4 0 0 0-1.405-.423c-.984-.07-1.891.452-2.558 1.179a2.93 2.93 0 0 0-.68 2.696l.013.058c.455 1.801-.341 3.583-1.695 4.822-.634.83-1.475 1.52-2.532 2.064a.68.68 0 0 1-.493.05l-12.761-3.502-25.803 25.491 9.175 35.091 34.977 9.6 25.803-25.491-2.775-10.613a.8.8 0 0 0-.156-.302l-.39-.467a3.1 3.1 0 0 0-3.916-.704l-1.871 1.069a5.36 5.36 0 0 1-7.841-3.298l-.001-.001a5.36 5.36 0 0 1 5.221-6.714l1.966.014a3.34 3.34 0 0 0 3.308-2.747l.077-.424a.6.6 0 0 0-.01-.243l-2.787-10.661-11.481-3.152a.68.68 0 0 1-.413-.321m22.119-6.96c1.182.011 2.31.239 3.305.489 1.738.437 3.224 1.68 3.708 3.466.25.925.933 1.673 1.833 2.003s2.118.194 2.96-.265c.446-.243.789-.594 1.069-1.005.555-.815.554-1.864.258-2.804a2.93 2.93 0 0 0-2.037-1.951c-1.786-.507-2.682-2.192-3.393-3.877-.311-.977-.522-2.043-.471-3.229a.7.7 0 0 1 .203-.455l9.413-9.299-9.174-35.092-34.978-9.599-25.802 25.491 9.175 35.091 10.578 2.903a.8.8 0 0 0 .34.016l.6-.104a3.1 3.1 0 0 0 2.567-3.04l.01-2.154a5.36 5.36 0 0 1 6.776-5.142l.002.001a5.36 5.36 0 0 1 3.203 7.878l-.994 1.695a3.34 3.34 0 0 0 .725 4.239l.329.278a.55.55 0 0 0 .215.113l10.626 2.917 8.47-8.367a.7.7 0 0 1 .484-.197m-5.074 22.339c-.598 1.02-1.357 1.885-2.068 2.623-1.244 1.291-3.062 1.961-4.851 1.492a2.96 2.96 0 0 0-2.651.594c-.734.616-1.283 1.742-1.242 2.7.021.5.119.977.34 1.427.434.885 1.341 1.408 2.304 1.619a2.93 2.93 0 0 0 2.673-.766l.04-.04c1.328-1.297 4.062-1.517 5.19-1.215.991.265 1.909.754 2.899 1.412a.7.7 0 0 1 .283.396l3.384 12.795 35.005 9.5 25.729-25.565-9.275-35.065-35.004-9.5-7.782 7.732a.8.8 0 0 0-.183.287l-.208.572a3.1 3.1 0 0 0 1.36 3.739l1.863 1.081a5.358 5.358 0 0 1 1.089 8.436l-.001.001a5.358 5.358 0 0 1-8.427-1.141l-.976-1.706a3.34 3.34 0 0 0-4.038-1.48l-.405.147a.6.6 0 0 0-.205.13l-7.817 7.767 3.044 11.51a.7.7 0 0 1-.07.518" style="fill:#257ddc" transform="rotate(14.653 10488.27 -6801.565)scale(4.43468)"/>
    <path d="m230.505 757.861 77.465 78.52a115 115 0 0 1-3.1 9.737l-10.393 2.395a106.2 106.2 0 0 1-11.535 20.262l3.246 10.16a115 115 0 0 1-15.634 15.825l-10.199-3.123a106.2 106.2 0 0 1-20.12 11.78l-2.269 10.422a115 115 0 0 1-21.451 5.888l-7.272-7.804c-6.189.721-12.427.896-18.641.525l-60.517-58.043.064-.049 32.815 18.945 32.879-18.983v-11.482a.8.8 0 0 0-.078-.347l-.271-.576a3.245 3.245 0 0 0-3.78-1.75l-2.177.587a5.606 5.606 0 0 1-7.067-5.416v-.001a5.605 5.605 0 0 1 7.064-5.416l1.987.534a3.495 3.495 0 0 0 4.078-1.906l.189-.409a.6.6 0 0 0 .055-.249v-11.534s-9.145-5.28-10.791-6.232a.7.7 0 0 1-.334-.434c-.316-1.196-.398-2.398-.422-3.471-.04-1.876.803-3.72 2.472-4.703a3.1 3.1 0 0 0 1.514-2.406c.085-.999-.362-2.222-1.088-2.914a3.5 3.5 0 0 0-1.311-.8c-.977-.332-2.034-.044-2.901.516a3.07 3.07 0 0 0-1.404 2.55l-.001.063c-.017 1.943-1.294 3.538-2.993 4.433-.475.251-1.294.96-2.261 1.197-.677.166-1.478.149-1.478.149s-1.026-.714-2.195-1.328l-7.913-7.189 9.953 5.771q.158.09.34.106l.635.053c1.566.131 3-.88 3.405-2.398l.581-2.179a5.607 5.607 0 0 1 8.223-3.413l.002.001a5.61 5.61 0 0 1 1.158 8.826l-1.457 1.454a3.494 3.494 0 0 0-.388 4.484l.26.369q.075.106.188.172l9.989 5.767s9.145-5.281 10.792-6.23a.72.72 0 0 1 .543-.072c1.194.324 2.276.854 3.217 1.37 1.645.903 2.82 2.556 2.837 4.492a3.1 3.1 0 0 0 1.326 2.514c.824.574 2.094.757 3.068.516.516-.128.956-.393 1.349-.736.777-.678 1.054-1.74 1.003-2.771a3.06 3.06 0 0 0-1.506-2.49c-.001-.002-.032-.02-.039-.025-1.675-.986-2.136-2.93-2.411-4.824-.056-1.072.013-2.208.379-3.395a.72.72 0 0 1 .326-.407l11.995-6.925zm-65.758 35.95-.357-.324.357-.192zm33.161 35.963c-.876.875-1.874 1.549-2.789 2.109-1.602.978-3.621 1.175-5.308.226a3.1 3.1 0 0 0-2.842-.1c-.907.429-1.76 1.424-1.973 2.405a3.7 3.7 0 0 0-.033 1.535c.205 1.012.985 1.781 1.904 2.249.92.469 2.014.444 2.91-.067.04-.025.044-.026.051-.03 1.689-.962 4.515-.46 5.578.144.933.53 1.733 1.269 2.561 2.197.117.131.182.3.182.476l.04 13.853 32.933 18.889 32.825-19.076-.108-37.966-32.934-18.889-9.927 5.77a.8.8 0 0 0-.261.242l-.362.524a3.245 3.245 0 0 0 .386 4.147l1.602 1.588a5.61 5.61 0 0 1-1.131 8.831l-.002.001a5.61 5.61 0 0 1-8.232-3.387l-.537-1.986a3.495 3.495 0 0 0-3.697-2.568l-.449.042a.6.6 0 0 0-.242.077l-9.972 5.796s.03 10.56.034 12.461a.72.72 0 0 1-.207.507" style="fill:#1d65b4" transform="translate(287.143 -2784.774)scale(4.2367)"/>
</svg>
