<svg xmlns="http://www.w3.org/2000/svg" xml:space="preserve" style="fill-rule:evenodd;clip-rule:evenodd;stroke-linejoin:round;stroke-miterlimit:2" viewBox="0 0 1549 509">
    <path d="M-1444 5604h2458v921h-2458z" style="fill:none" transform="matrix(.62978 0 0 .55157 910.376 -3090.099)"/>
    <path d="M65.802 431.527v96.081q0 3.231-2.248 5.463t-5.723 2.232-5.671-2.232-2.197-5.463V409.903q0-3.039 2.401-5.367 2.402-2.328 5.978-2.328 1.941 0 4.036.903 2.096.903 3.321 2.517l50.538 71.009 51.238-71.009q2.758-3.609 6.948-3.42 3.27.096 5.723 2.233t2.452 5.462v117.705q0 3.231-2.401 5.463-2.402 2.232-6.08 2.232-3.781 0-6.182-2.232t-2.402-5.463v-95.104l-43.224 60.999q-1.124 1.425-2.861 2.375a6.8 6.8 0 0 1-3.678.855q-1.84.096-3.679-.855-1.84-.95-2.963-2.375zm285.605 37.276q0 14.726-5.058 27.17-5.059 12.446-14.306 21.708t-21.868 14.392q-12.619 5.13-27.641 5.13-15.02 0-27.589-5.13t-21.817-14.392-14.305-21.708q-5.06-12.444-5.059-27.17 0-14.724 5.059-27.17 5.058-12.444 14.305-21.707t21.817-14.393q12.568-5.13 27.589-5.13 15.022 0 27.641 5.13 12.62 5.13 21.868 14.393t14.306 21.707q5.058 12.446 5.058 27.17m-17.576 0q0-15.484-6.591-27.502t-18.087-18.858-26.619-6.84q-15.021 0-26.567 6.84-11.547 6.84-18.087 18.81t-6.54 27.55q0 15.486 6.54 27.503t18.087 18.857 26.567 6.84q15.125 0 26.619-6.84 11.496-6.84 18.087-18.857t6.591-27.503m108.009-66.5q15.021 0 26.363 5.273 11.343 5.273 18.904 14.582t11.292 21.328q3.729 12.018 3.729 25.317 0 18.336-6.693 33.44-6.693 15.105-20.028 24.083t-33.567 8.977h-50.99q-3.474 0-5.876-2.232-2.401-2.232-2.401-5.463v-117.61q0-3.23 2.401-5.462 2.402-2.233 5.876-2.233zm-42.202 14.725v103.55h40.158q15.839 0 25.699-7.03 9.861-7.029 14.459-18.81 4.599-11.78 4.599-25.935 0-10.26-2.555-19.617t-7.97-16.578-13.897-11.4-20.335-4.18zm150.721 103.55h63.968q3.475 0 5.875 2.233 2.402 2.232 2.402 5.177 0 3.23-2.402 5.273-2.4 2.043-5.875 2.042h-72.755q-3.475 0-5.876-2.232t-2.401-5.463v-117.61q0-3.23 2.401-5.462 2.401-2.233 5.876-2.233h72.755q3.475 0 5.875 2.138 2.402 2.137 2.402 5.367t-2.402 5.225q-2.4 1.995-5.875 1.995h-63.968v42.655h54.771q3.474 0 5.876 2.138 2.401 2.137 2.401 5.367t-2.401 5.225-5.876 1.995h-54.771zm120.476-.19h61.923q3.475 0 5.876 2.138t2.401 5.367-2.401 5.32-5.876 2.09h-70.711q-3.576 0-5.927-2.232t-2.35-5.463v-117.61q0-3.23 2.452-5.462 2.452-2.233 6.234-2.233 3.372 0 5.875 2.233t2.504 5.462z" style="fill:#fff;fill-rule:nonzero" transform="matrix(.62501 0 0 .67523 1013.67 94.36)"/>
    <path d="M144.466 411.043q3.23 1.806 3.752 5.178.523 3.372-1.757 6.317-1.71 2.376-4.37 2.613t-5.32-1.093q-6.27-3.8-13.49-5.985-7.22-2.184-15.295-2.185-11.211 0-20.52 3.848-9.31 3.848-16.15 10.925t-10.593 16.767q-3.752 9.69-3.752 21.375 0 12.54 3.942 22.42t10.878 16.815q6.935 6.936 16.197 10.545t19.998 3.61q7.884 0 15.105-2.09a55.4 55.4 0 0 0 13.585-5.985q2.66-1.425 5.367-1.045t4.513 2.755q2.375 3.04 1.757 6.318-.617 3.278-3.657 4.892-4.75 2.85-10.83 5.178a79.4 79.4 0 0 1-12.635 3.657 66.2 66.2 0 0 1-13.205 1.33q-13.68 0-25.793-4.75-12.112-4.749-21.47-13.632t-14.725-21.518-5.367-28.5q0-14.724 5.13-27.122t14.297-21.518q9.168-9.12 21.423-14.202t26.505-5.083q9.975 0 19.332 2.66t17.148 7.505m150.385 57.76q0 14.726-4.703 27.17-4.702 12.446-13.3 21.708-8.597 9.262-20.33 14.392t-25.697 5.13q-13.965 0-25.65-5.13t-20.283-14.392-13.3-21.708q-4.702-12.444-4.702-27.17 0-14.724 4.702-27.17 4.703-12.444 13.3-21.707t20.283-14.393 25.65-5.13 25.697 5.13 20.33 14.393 13.3 21.707q4.703 12.446 4.703 27.17m-16.34 0q0-15.484-6.128-27.502-6.127-12.018-16.815-18.858-10.687-6.84-24.747-6.84-13.966 0-24.7 6.84-10.736 6.84-16.815 18.81t-6.08 27.55q0 15.486 6.08 27.503t16.815 18.857 24.7 6.84q14.06 0 24.747-6.84t16.815-18.857 6.128-27.503m60.04-37.276v96.081q0 3.231-2.09 5.463t-5.32 2.232-5.273-2.232q-2.042-2.232-2.042-5.463V409.903q0-3.039 2.232-5.367t5.558-2.328q1.805 0 3.752.903 1.948.903 3.088 2.517l46.984 71.009 47.636-71.009q2.565-3.609 6.46-3.42 3.04.096 5.32 2.233t2.28 5.462v117.705q0 3.231-2.233 5.463t-5.652 2.232q-3.515 0-5.748-2.232t-2.232-5.463v-95.104l-40.185 60.999a8.8 8.8 0 0 1-2.66 2.375q-1.615.951-3.42.855-1.71.096-3.42-.855-1.71-.95-2.755-2.375zm160.55 50.481v45.6q0 3.231-2.138 5.463t-5.367 2.232q-3.325 0-5.368-2.232-2.042-2.232-2.042-5.463v-117.61q0-3.23 2.232-5.462 2.233-2.233 5.463-2.233h44.46q10.354 0 18.715 5.13 8.36 5.13 13.252 14.06t4.893 20.33q0 11.21-4.893 20.33t-13.252 14.488q-8.36 5.367-18.715 5.367zm0-64.98v50.35h37.24q6.175 0 10.972-3.467 4.798-3.468 7.648-9.31t2.85-12.778q0-7.125-2.85-12.682t-7.648-8.835-10.972-3.278zm222.49 51.775q0 14.726-4.703 27.17-4.702 12.446-13.3 21.708-8.597 9.262-20.33 14.392t-25.697 5.13-25.65-5.13q-11.685-5.13-20.283-14.392-8.597-9.263-13.3-21.708-4.702-12.444-4.702-27.17 0-14.724 4.702-27.17 4.703-12.444 13.3-21.707t20.283-14.393 25.65-5.13 25.697 5.13 20.33 14.393 13.3 21.707q4.703 12.446 4.703 27.17m-16.34 0q0-15.484-6.128-27.502t-16.815-18.858-24.747-6.84q-13.966 0-24.7 6.84-10.736 6.84-16.815 18.81t-6.08 27.55q0 15.486 6.08 27.503t16.815 18.857 24.7 6.84q14.06 0 24.747-6.84 10.688-6.84 16.815-18.857t6.128-27.503m59.375-38.486v98.051q0 2.946-1.995 4.94t-5.13 1.995-5.035-1.995-1.9-4.94v-118.37q0-3.514 2.232-5.605 2.233-2.09 5.273-2.09 1.71 0 3.515.665 1.804.666 2.755 2.09l77.71 102.876v-98.506q0-3.039 1.995-5.082t5.035-2.043q3.135 0 5.035 2.043t1.9 5.082v117.99q0 3.516-2.28 5.7t-5.51 2.185q-1.615 0-3.325-.617-1.71-.618-2.66-1.758zm144.305 90.261h59.47q3.23 0 5.462 2.233 2.233 2.232 2.233 5.177 0 3.23-2.233 5.273t-5.462 2.042h-67.64q-3.23 0-5.463-2.232t-2.232-5.463v-117.61q0-3.23 2.232-5.462 2.233-2.233 5.463-2.233h67.64q3.23 0 5.462 2.138 2.233 2.137 2.233 5.367t-2.233 5.225-5.462 1.995h-59.47v42.655h50.92q3.23 0 5.462 2.138 2.233 2.137 2.233 5.367t-2.233 5.225-5.462 1.995h-50.92zm110.2-90.261v98.051q0 2.946-1.995 4.94t-5.13 1.995-5.035-1.995-1.9-4.94v-118.37q0-3.514 2.232-5.605 2.233-2.09 5.273-2.09 1.71 0 3.515.665 1.804.666 2.755 2.09l77.71 102.876v-98.506q0-3.039 1.995-5.082t5.035-2.043q3.135 0 5.035 2.043t1.9 5.082v117.99q0 3.516-2.28 5.7t-5.51 2.185q-1.615 0-3.325-.617-1.71-.618-2.66-1.758zm161.785-13.479h-36.1q-3.23 0-5.463-2.042-2.232-2.043-2.232-5.273t2.232-5.225 5.463-1.995h88.35q3.23 0 5.462 2.043 2.233 2.043 2.233 5.272 0 3.326-2.233 5.273t-5.462 1.947h-36.1v110.77q0 3.231-2.328 5.463t-5.842 2.232-5.748-2.232q-2.232-2.232-2.232-5.463z" style="fill:#fff;fill-rule:nonzero" transform="translate(7.305 -298.553)scale(1.18263)"/>
    <path d="M171.536 468.803q0 14.726-4.803 27.17-4.804 12.446-13.587 21.708t-20.768 14.392-26.251 5.13-26.202-5.13-20.72-14.392-13.586-21.708q-4.804-12.444-4.804-27.17 0-14.724 4.804-27.17 4.803-12.444 13.586-21.707t20.72-14.393 26.202-5.13 26.251 5.13 20.768 14.393 13.587 21.707q4.803 12.446 4.803 27.17m-16.692 0q0-15.484-6.259-27.502t-17.177-18.858-25.281-6.84q-14.265 0-25.232 6.84t-17.177 18.81-6.211 27.55q0 15.486 6.211 27.503t17.177 18.857 25.232 6.84q14.362 0 25.281-6.84 10.917-6.84 17.177-18.857t6.259-27.503m61.528 13.205v45.6q0 3.231-2.184 5.463-2.183 2.232-5.483 2.232-3.396 0-5.483-2.232t-2.087-5.463v-117.61q0-3.23 2.281-5.462 2.28-2.233 5.58-2.233h45.418q10.578 0 19.118 5.13t13.538 14.06 4.998 20.33q0 11.21-4.998 20.33t-13.538 14.488-19.118 5.367zm0-64.98v50.35h38.042q6.308 0 11.209-3.467t7.812-9.31q2.911-5.842 2.911-12.778 0-7.125-2.911-12.682t-7.812-8.835-11.209-3.278z" style="fill:#fff;fill-rule:nonzero" transform="matrix(.60847 0 0 .62157 30.139 -186.958)"/>
    <path d="M337.389 520.578h60.751q3.298 0 5.58 2.233 2.28 2.232 2.28 5.177 0 3.23-2.28 5.273-2.281 2.043-5.58 2.042h-69.097q-3.3 0-5.581-2.232-2.28-2.232-2.28-5.463v-117.61q0-3.23 2.28-5.462 2.281-2.233 5.581-2.233h69.097q3.298 0 5.58 2.138 2.28 2.137 2.28 5.367t-2.28 5.225q-2.281 1.995-5.58 1.995h-60.751v42.655h52.016q3.3 0 5.581 2.138 2.28 2.137 2.28 5.367t-2.28 5.225-5.581 1.995h-52.016z" style="fill:#fff;fill-rule:nonzero" transform="matrix(.60847 0 0 .62157 30.139 -185.958)"/>
    <path d="M449.962 430.317v98.051q0 2.946-2.038 4.94t-5.24 1.995-5.144-1.995-1.941-4.94v-118.37q0-3.514 2.281-5.605 2.28-2.09 5.386-2.09 1.748 0 3.591.665 1.844.666 2.814 2.09l79.384 102.876v-98.506q0-3.039 2.038-5.082t5.144-2.043q3.202 0 5.143 2.043t1.941 5.082v117.99q0 3.516-2.329 5.7t-5.629 2.185q-1.65 0-3.397-.617-1.746-.618-2.717-1.758z" style="fill:#fff;fill-rule:nonzero" transform="matrix(.60847 0 0 .62157 30.139 -186.958)"/>
</svg>
