<svg xmlns="http://www.w3.org/2000/svg" xml:space="preserve" style="fill-rule:evenodd;clip-rule:evenodd;stroke-linejoin:round;stroke-miterlimit:2" viewBox="0 0 500 500">
    <path d="M-2148.626-1030.015H612.577v2165.427h-2761.203z" style="fill:none" transform="matrix(.18108 0 0 .2309 389.074 237.832)"/>
    <path d="m328.697 36.155 4.746 20.59a210.6 210.6 0 0 1 40.142 22.854l20.129-6.431.006.001a228 228 0 0 1 31.356 30.978v.006l-6.185 20.204a210.4 210.4 0 0 1 23.337 39.863l20.647 4.496.006.004a228 228 0 0 1 11.666 42.505l-.002.006-15.46 14.404a210.5 210.5 0 0 1 .281 46.192l15.632 14.216.003.007a228 228 0 0 1-11.15 42.643l-.005.003-20.59 4.746a210.6 210.6 0 0 1-22.854 40.142l6.431 20.129-.002.008a228 228 0 0 1-30.977 31.353l-.007.003-20.206-6.186a210.5 210.5 0 0 1-39.861 23.338l-4.496 20.645-.003.006a228 228 0 0 1-42.506 11.665l-.006-.001-14.405-15.458a210.5 210.5 0 0 1-46.19.279l-14.217 15.632-.007.003a228 228 0 0 1-42.643-11.15l-.003-.005-4.748-20.59a210.6 210.6 0 0 1-40.141-22.852l-20.128 6.43-.008-.003a228 228 0 0 1-31.354-30.977l-.002-.007 6.185-20.204a210.6 210.6 0 0 1-23.338-39.86l-20.647-4.497-.003-.005a227.7 227.7 0 0 1-11.667-42.503l.003-.008 15.458-14.405a210.4 210.4 0 0 1-.28-46.191l-15.632-14.216-.003-.005a228 228 0 0 1 11.15-42.644l.005-.005 20.59-4.745a210.4 210.4 0 0 1 22.853-40.143l-6.43-20.128.002-.006a227.6 227.6 0 0 1 30.978-31.356h.004l20.206 6.185a210.5 210.5 0 0 1 39.862-23.34l4.495-20.645.006-.005a228 228 0 0 1 42.503-11.666l.008.002 14.405 15.46a210.6 210.6 0 0 1 46.19-.282l14.218-15.631.005-.003a228 228 0 0 1 42.643 11.15zm-102.925 220.35c-.626-2.37-.79-4.751-.834-6.877-.083-3.717 1.589-7.372 4.895-9.318a6.13 6.13 0 0 0 3-4.768c.168-1.98-.716-4.402-2.154-5.774a7 7 0 0 0-2.597-1.586c-1.938-.657-4.032-.085-5.751 1.023a6.07 6.07 0 0 0-2.78 5.053l-.004.123c-.031 3.853-2.564 7.011-5.93 8.787-1.708 1.333-3.758 2.276-6.164 2.813a1.4 1.4 0 0 1-1.015-.158L182.669 232.1l-65.148 37.612v75.225l65.147 37.613 65.148-37.612v-22.751a1.6 1.6 0 0 0-.155-.688l-.537-1.142a6.43 6.43 0 0 0-7.488-3.467l-4.316 1.164a11.112 11.112 0 0 1-14.003-10.731l-.001-.003a11.12 11.12 0 0 1 13.998-10.733l3.938 1.06a6.92 6.92 0 0 0 8.079-3.777l.377-.81a1.2 1.2 0 0 0 .107-.493l.001-22.854-21.384-12.348a1.42 1.42 0 0 1-.66-.861m48.035-2.361c2.366.642 4.51 1.691 6.375 2.715 3.258 1.789 5.588 5.062 5.622 8.9a6.13 6.13 0 0 0 2.627 4.98c1.632 1.137 4.148 1.501 6.078 1.022 1.023-.254 1.895-.778 2.673-1.456 1.54-1.344 2.09-3.45 1.988-5.49a6.07 6.07 0 0 0-3.063-4.984c-3.318-1.955-4.232-5.806-4.775-9.56-.111-2.123.025-4.373.75-6.726.106-.341.337-.628.645-.807l23.767-13.72.002-75.227-65.15-37.611-65.146 37.612v75.225l19.702 11.375c.207.12.437.191.674.21l1.259.107a6.43 6.43 0 0 0 6.745-4.754l1.15-4.316a11.114 11.114 0 0 1 16.295-6.763l.003.003a11.11 11.11 0 0 1 2.294 17.488l-2.884 2.88a6.92 6.92 0 0 0-.769 8.886l.515.73c.096.139.224.256.372.34l19.791 11.427 21.385-12.345a1.42 1.42 0 0 1 1.075-.141m-21.901 42.162c-1.735 1.733-3.712 3.07-5.526 4.178-3.174 1.938-7.173 2.329-10.517.45a6.14 6.14 0 0 0-5.63-.2c-1.797.851-3.489 2.823-3.91 4.766-.22 1.015-.273 2.023-.066 3.042.407 2.004 1.952 3.529 3.774 4.457a6.07 6.07 0 0 0 5.765-.134l.102-.06c3.345-1.905 8.946-.912 11.051.285 1.85 1.052 3.435 2.515 5.076 4.354.23.26.36.596.36.944l.078 27.449 65.255 37.427 65.04-37.8-.215-75.225-65.254-37.427-19.671 11.432c-.205.12-.383.284-.518.48l-.717 1.039a6.43 6.43 0 0 0 .767 8.216l3.171 3.146a11.112 11.112 0 0 1-2.24 17.499l-.003.001a11.112 11.112 0 0 1-16.31-6.71l-1.064-3.935a6.924 6.924 0 0 0-7.326-5.089l-.89.083c-.17.016-.333.067-.48.153l-19.76 11.484.07 24.692c0 .376-.147.736-.412 1.003"/>
</svg>
