<?xml version="1.0" encoding="UTF-8" standalone="no"?>
<!DOCTYPE svg PUBLIC "-//W3C//DTD SVG 1.1//EN" "http://www.w3.org/Graphics/SVG/1.1/DTD/svg11.dtd">
<svg width="100%" height="100%" viewBox="0 0 500 500" version="1.1" xmlns="http://www.w3.org/2000/svg" xmlns:xlink="http://www.w3.org/1999/xlink" xml:space="preserve" xmlns:serif="http://www.serif.com/" style="fill-rule:evenodd;clip-rule:evenodd;stroke-linejoin:round;stroke-miterlimit:2;">
    <g transform="matrix(1,0,0,1,-8642,-13677)">
        <g transform="matrix(1,0,0,1,5509,13664.128434)">
            <g id="favicon-transparent" transform="matrix(0.181081,0,0,0.230901,3522.074359,250.703361)">
                <rect x="-2148.626" y="-1030.015" width="2761.203" height="2165.427" style="fill:none;"/>
                <g id="Outer-Cog" serif:id="Outer Cog" transform="matrix(11.080994,2.272109,-2.897236,8.690083,-7227.229559,-7048.521305)">
                    <g id="Image">
                        <path id="Outer-Cog1" serif:id="Outer Cog" d="M756.223,512.868L760.948,521.894C768.309,523.021 775.523,524.954 782.461,527.659L791.066,522.204L791.069,522.204C797.533,525.143 803.697,528.702 809.474,532.83L809.475,532.833L809.054,543.012C814.865,547.668 820.147,552.949 824.802,558.761L834.982,558.34L834.985,558.341C839.113,564.118 842.672,570.282 845.611,576.746L845.611,576.749L840.156,585.354C842.861,592.292 844.794,599.506 845.921,606.867L854.947,611.592L854.949,611.595C855.635,618.662 855.635,625.779 854.949,632.847L854.947,632.849L845.921,637.574C844.794,644.935 842.861,652.149 840.156,659.087L845.611,667.692L845.611,667.696C842.672,674.159 839.113,680.323 834.985,686.1L834.982,686.102L824.802,685.681C820.147,691.492 814.865,696.773 809.054,701.429L809.475,711.608L809.474,711.611C803.697,715.74 797.533,719.298 791.069,722.237L791.066,722.237L782.461,716.783C775.523,719.487 768.309,721.421 760.948,722.547L756.223,731.573L756.22,731.575C749.153,732.262 742.036,732.262 734.968,731.575L734.966,731.573L730.24,722.547C722.88,721.421 715.666,719.487 708.728,716.783L700.123,722.237L700.119,722.237C693.656,719.298 687.492,715.74 681.715,711.611L681.713,711.608L682.134,701.429C676.323,696.773 671.042,691.492 666.386,685.681L656.206,686.102L656.204,686.1C652.075,680.323 648.516,674.159 645.578,667.696L645.578,667.692L651.032,659.087C648.327,652.149 646.394,644.935 645.268,637.574L636.242,632.849L636.24,632.847C635.553,625.779 635.553,618.662 636.24,611.595L636.242,611.592L645.268,606.867C646.394,599.506 648.327,592.292 651.032,585.354L645.578,576.749L645.578,576.746C648.516,570.282 652.075,564.118 656.204,558.341L656.206,558.34L666.386,558.761C671.042,552.949 676.323,547.668 682.134,543.012L681.713,532.833L681.715,532.83C687.492,528.702 693.656,525.143 700.119,522.204L700.123,522.204L708.728,527.659C715.666,524.954 722.88,523.021 730.24,521.894L734.966,512.868L734.968,512.866C742.036,512.18 749.153,512.18 756.22,512.866L756.223,512.868ZM735.086,628.21C734.505,627.181 734.138,626.09 733.858,625.104C733.366,623.38 733.7,621.471 735.005,620.16C735.681,619.481 735.987,618.515 735.823,617.57C735.66,616.626 734.952,615.604 734.114,615.139C733.684,614.901 733.219,614.753 732.709,614.716C731.725,614.646 730.818,615.168 730.151,615.895C729.485,616.622 729.229,617.635 729.471,618.591L729.484,618.649C729.939,620.45 729.143,622.232 727.789,623.471C727.155,624.301 726.314,624.991 725.257,625.535C725.105,625.613 724.929,625.631 724.764,625.585L712.003,622.083L686.2,647.574L695.375,682.665L730.352,692.265L756.155,666.774L753.38,656.161C753.351,656.05 753.298,655.947 753.224,655.859L752.834,655.392C751.871,654.24 750.221,653.944 748.918,654.688L747.047,655.757C745.599,656.583 743.849,656.689 742.313,656.043C740.776,655.397 739.628,654.072 739.206,652.459L739.205,652.458C738.784,650.845 739.137,649.129 740.16,647.813C741.183,646.497 742.76,645.733 744.426,645.744L746.392,645.758C748.016,645.769 749.413,644.61 749.7,643.011L749.777,642.587C749.791,642.506 749.788,642.423 749.767,642.344L746.98,631.683L735.499,628.531C735.324,628.483 735.176,628.368 735.086,628.21ZM757.205,621.25C758.387,621.261 759.515,621.489 760.51,621.739C762.248,622.176 763.734,623.419 764.218,625.205C764.468,626.13 765.151,626.878 766.051,627.208C766.951,627.539 768.169,627.402 769.011,626.943C769.457,626.7 769.8,626.349 770.08,625.938C770.635,625.123 770.634,624.074 770.338,623.134C770.042,622.193 769.292,621.465 768.344,621.196C768.343,621.194 768.309,621.185 768.301,621.183C766.515,620.676 765.619,618.991 764.908,617.306C764.597,616.329 764.386,615.263 764.437,614.077C764.445,613.905 764.518,613.743 764.64,613.622L774.053,604.323L764.879,569.231L729.901,559.632L704.099,585.123L713.274,620.214L723.852,623.117C723.963,623.148 724.079,623.153 724.192,623.133L724.792,623.029C726.27,622.771 727.352,621.491 727.359,619.989L727.369,617.835C727.377,616.168 728.16,614.6 729.488,613.592C730.816,612.584 732.538,612.252 734.145,612.693L734.147,612.694C735.754,613.135 737.064,614.299 737.692,615.842C738.32,617.386 738.194,619.134 737.35,620.572L736.356,622.267C735.534,623.668 735.84,625.458 737.081,626.506L737.41,626.784C737.472,626.837 737.546,626.876 737.625,626.897L748.251,629.814L756.721,621.447C756.85,621.32 757.024,621.249 757.205,621.25ZM752.131,643.589C751.533,644.609 750.774,645.474 750.063,646.212C748.819,647.503 747.001,648.173 745.212,647.704C744.284,647.461 743.296,647.682 742.561,648.298C741.827,648.914 741.278,650.04 741.319,650.998C741.34,651.498 741.438,651.975 741.659,652.425C742.093,653.31 743,653.833 743.963,654.044C744.926,654.255 745.931,653.967 746.636,653.278L746.676,653.238C748.004,651.941 750.738,651.721 751.866,652.023C752.857,652.288 753.775,652.777 754.765,653.435C754.904,653.528 755.005,653.669 755.048,653.831L758.432,666.626L793.437,676.126L819.166,650.561L809.891,615.496L774.887,605.996L767.105,613.728C767.024,613.809 766.961,613.907 766.922,614.015L766.714,614.587C766.202,615.998 766.775,617.573 768.074,618.326L769.937,619.407C771.38,620.243 772.35,621.703 772.564,623.356C772.777,625.009 772.209,626.668 771.026,627.843L771.025,627.844C769.843,629.019 768.182,629.576 766.53,629.353C764.879,629.129 763.425,628.15 762.598,626.703L761.622,624.997C760.815,623.587 759.111,622.962 757.584,623.517L757.179,623.664C757.102,623.692 757.032,623.736 756.974,623.794L749.157,631.561L752.201,643.071C752.247,643.246 752.222,643.432 752.131,643.589Z"/>
                    </g>
                </g>
            </g>
        </g>
    </g>
</svg>
