<svg xmlns="http://www.w3.org/2000/svg" xml:space="preserve" style="fill-rule:evenodd;clip-rule:evenodd;stroke-linejoin:round;stroke-miterlimit:2" viewBox="0 0 2167 2044">
    <path d="M-2148.626-1030.015H612.577v2165.427h-2761.203z" style="fill:none" transform="matrix(.78434 0 0 .94379 1686.22 972.244)"/>
    <path d="m1365.833 255.688 17.005 73.782a754.5 754.5 0 0 1 143.847 81.896l72.127-23.046.022.006a816.7 816.7 0 0 1 112.36 111.005l.002.023-22.164 72.398a754 754 0 0 1 83.625 142.846l73.988 16.11.02.014a816.7 816.7 0 0 1 41.803 152.313l-.006.022-55.4 51.617a754.5 754.5 0 0 1 1.008 165.522l56.017 50.943.009.025a817.4 817.4 0 0 1-39.953 152.808l-.019.01-73.782 17.006a754.5 754.5 0 0 1-81.895 143.846l23.045 72.127-.007.03a817 817 0 0 1-111.003 112.352l-.025.01-72.406-22.166a754.2 754.2 0 0 1-142.838 83.627l-16.109 73.98-.013.02a816 816 0 0 1-152.313 41.804l-.022-.006-51.619-55.393a754.5 754.5 0 0 1-165.52 1l-50.943 56.017-.025.01a816 816 0 0 1-152.808-39.954l-.01-.018-17.013-73.784a754.5 754.5 0 0 1-143.84-81.887l-72.126 23.039-.03-.008a816.4 816.4 0 0 1-112.352-111.003l-.01-.025 22.164-72.398a754.5 754.5 0 0 1-83.626-142.838l-73.989-16.111-.01-.018a816 816 0 0 1-41.805-152.307l.007-.029 55.393-51.618a754 754 0 0 1-1-165.52l-56.017-50.944-.011-.018a816 816 0 0 1 39.953-152.807l.02-.018 73.782-17.006a754 754 0 0 1 81.889-143.848l-23.039-72.125.006-.022a815.7 815.7 0 0 1 111.005-112.36l.016-.004 72.405 22.165a754.3 754.3 0 0 1 142.84-83.633l16.11-73.982.02-.017a817 817 0 0 1 152.306-41.805l.028.007 51.617 55.4a754.5 754.5 0 0 1 165.516-1.01l50.95-56.014.018-.011a817.4 817.4 0 0 1 152.807 39.953zm-368.82 789.604c-2.243-8.492-2.831-17.026-2.99-24.642-.297-13.321 5.693-26.42 17.541-33.392a21.97 21.97 0 0 0 10.75-17.085c.604-7.094-2.566-15.774-7.717-20.693-2.644-2.52-5.71-4.458-9.307-5.683-6.944-2.353-14.447-.305-20.61 3.669a21.76 21.76 0 0 0-9.957 18.106l-.016.442c-.114 13.805-9.188 25.121-21.252 31.485-6.12 4.776-13.464 8.156-22.086 10.08a5.05 5.05 0 0 1-3.64-.567l-85.17-49.17-233.453 134.778v269.562l233.447 134.783 233.452-134.779v-81.527c0-.853-.188-1.693-.554-2.465l-1.927-4.09c-4.758-10.094-16.066-15.325-26.833-12.425l-15.463 4.17a39.84 39.84 0 0 1-34.576-6.844 39.82 39.82 0 0 1-15.603-31.611l-.005-.01a39.84 39.84 0 0 1 15.6-31.603 39.82 39.82 0 0 1 34.563-6.856l14.11 3.796c11.656 3.133 23.88-2.575 28.949-13.532l1.35-2.904a4.2 4.2 0 0 0 .386-1.766l.003-81.895-76.626-44.248a5.07 5.07 0 0 1-2.366-3.084m172.126-8.462c8.478 2.301 16.16 6.061 22.844 9.73 11.676 6.41 20.024 18.14 20.146 31.892a21.95 21.95 0 0 0 9.414 17.848c5.85 4.072 14.864 5.377 21.782 3.66 3.663-.91 6.79-2.788 9.575-5.217 5.523-4.817 7.488-12.361 7.127-19.677a21.76 21.76 0 0 0-10.694-17.683c-.004-.016-.231-.145-.285-.174-11.889-7.003-15.163-20.803-17.108-34.256-.4-7.61.088-15.67 2.684-24.103a5.1 5.1 0 0 1 2.315-2.89l85.164-49.166.008-269.568-233.455-134.777L855.21 677.23v269.563l70.602 40.76a5.7 5.7 0 0 0 2.415.754l4.51.38c11.112.924 21.298-6.246 24.172-17.032l4.121-15.47a39.825 39.825 0 0 1 58.388-24.233l.013.011a39.83 39.83 0 0 1 19.571 29.3 39.8 39.8 0 0 1-11.351 33.366l-10.334 10.32c-8.544 8.528-9.71 21.973-2.756 31.842l1.843 2.617c.346.498.805.917 1.333 1.217l70.92 40.95 76.632-44.237a5.1 5.1 0 0 1 3.85-.507m-78.48 151.085c-6.217 6.21-13.301 11.002-19.8 14.972-11.372 6.944-25.704 8.344-37.686 1.608a22 22 0 0 0-20.178-.713c-6.435 3.05-12.5 10.114-14.006 17.08-.789 3.634-.981 7.248-.238 10.899 1.457 7.18 6.995 12.645 13.523 15.972a21.76 21.76 0 0 0 20.66-.482l.362-.213c11.987-6.829 32.059-3.27 39.602 1.021 6.627 3.769 12.309 9.01 18.19 15.603a5.13 5.13 0 0 1 1.29 3.38l.278 98.36 233.836 134.117 233.06-135.45-.77-269.563-233.828-134.114-70.49 40.965a5.8 5.8 0 0 0-1.856 1.72l-2.57 3.721c-6.335 9.183-5.176 21.585 2.749 29.441l11.363 11.275a39.82 39.82 0 0 1 11.465 33.333 39.83 39.83 0 0 1-19.494 29.372l-.009.005a39.82 39.82 0 0 1-35.157 2.4 39.82 39.82 0 0 1-23.29-26.446l-3.81-14.102c-3.153-11.655-14.23-19.353-26.253-18.233l-3.188.296a4.2 4.2 0 0 0-1.719.55l-70.808 41.15.249 88.483a5.1 5.1 0 0 1-1.477 3.593"/>
    <path d="M165.707 204.717a.68.68 0 0 0 .319.415l10.309 5.954v11.019a.55.55 0 0 1-.052.237l-.181.391a3.34 3.34 0 0 1-3.896 1.821l-1.898-.51a5.357 5.357 0 0 0-6.749 5.174v.002a5.36 5.36 0 0 0 6.752 5.173l2.08-.56a3.1 3.1 0 0 1 3.611 1.671l.259.551a.8.8 0 0 1 .074.332v10.969l-31.411 18.136-31.411-18.136v-36.27l31.411-18.136 11.46 6.617a.7.7 0 0 0 .49.076q1.739-.391 2.972-1.357c1.624-.856 2.844-2.379 2.86-4.236l.001-.059a2.93 2.93 0 0 1 1.341-2.437c.829-.534 1.839-.81 2.772-.493.484.164.897.425 1.253.765.693.661 1.12 1.829 1.039 2.784a2.96 2.96 0 0 1-1.447 2.298c-1.594.939-2.4 2.701-2.361 4.494.022 1.025.101 2.172.403 3.315" style="fill:#fff" transform="matrix(7.43197 0 0 7.43198 -234.517 -476.162)"/>
    <path d="M165.707 204.717a.68.68 0 0 0 .319.415l10.309 5.954v11.019a.55.55 0 0 1-.052.237l-.181.391a3.34 3.34 0 0 1-3.896 1.821l-1.898-.51a5.357 5.357 0 0 0-6.749 5.174v.002a5.36 5.36 0 0 0 6.752 5.173l2.08-.56a3.1 3.1 0 0 1 3.611 1.671l.259.551a.8.8 0 0 1 .074.332v10.969l-31.411 18.136-31.411-18.136v-36.27l31.411-18.136 11.46 6.616a.7.7 0 0 0 .492.076c1.157-.265 2.13-.75 2.989-1.309 1.437-1.132 2.825-2.442 2.841-4.298l.001-.044a2.93 2.93 0 0 1 1.341-2.437c.829-.534 1.839-.812 2.772-.493.471.161.9.399 1.253.765.665.69 1.12 1.829 1.039 2.784a2.96 2.96 0 0 1-1.447 2.298c-1.594.939-2.4 2.701-2.361 4.494.022 1.025.101 2.172.403 3.315" style="fill:#fff" transform="rotate(120 1340.236 1261.131)scale(7.43198)"/>
    <path d="M165.707 204.717a.68.68 0 0 0 .319.415l10.309 5.954v11.019a.55.55 0 0 1-.052.237l-.181.391a3.34 3.34 0 0 1-3.896 1.821l-1.898-.51a5.357 5.357 0 0 0-6.749 5.174v.002a5.36 5.36 0 0 0 6.752 5.173l2.08-.56a3.1 3.1 0 0 1 3.611 1.671l.259.551a.8.8 0 0 1 .074.332v10.969l-31.411 18.136-31.411-18.136v-36.27l31.411-18.136 11.462 6.618a.7.7 0 0 0 .48.078c1.164-.239 2.159-.545 3.045-1.061 1.009-.588 2.78-2.682 2.796-4.538v-.056a2.93 2.93 0 0 1 1.341-2.437c.829-.534 1.838-.809 2.772-.493a3.5 3.5 0 0 1 1.253.765c.708.646 1.12 1.829 1.039 2.784a2.96 2.96 0 0 1-1.447 2.298c-1.594.939-2.4 2.701-2.361 4.494.022 1.025.101 2.172.403 3.315" style="fill:#fff" transform="rotate(239.836 1065.127 1395.216)scale(7.43198 7.43197)"/>
</svg>
