<svg xmlns="http://www.w3.org/2000/svg" xml:space="preserve" style="fill-rule:evenodd;clip-rule:evenodd;stroke-linejoin:round;stroke-miterlimit:2" viewBox="0 0 2167 2044">
    <path d="M-2148.626-1030.015H612.577v2165.427h-2761.203z" style="fill:none" transform="matrix(.78434 0 0 .94379 1686.22 972.244)"/>
    <path d="m1365.833 255.686 17.005 73.783a754.5 754.5 0 0 1 143.846 81.895l72.128-23.045.022.005a816.7 816.7 0 0 1 112.36 111.005l.001.023-22.163 72.399a754 754 0 0 1 83.625 142.845l73.988 16.11.02.014a816.7 816.7 0 0 1 41.803 152.313l-.006.022-55.4 51.617a754.5 754.5 0 0 1 1.008 165.522l56.017 50.943.009.025a817.4 817.4 0 0 1-39.953 152.808l-.019.01-73.782 17.006a754.5 754.5 0 0 1-81.895 143.846l23.045 72.128-.007.028a817 817 0 0 1-111.003 112.354l-.025.008-72.406-22.165a754.2 754.2 0 0 1-142.838 83.627l-16.109 73.981-.013.02a816 816 0 0 1-152.313 41.803l-.022-.006-51.618-55.393a754.5 754.5 0 0 1-165.52 1.001l-50.943 56.017-.026.008a816 816 0 0 1-152.807-39.953l-.01-.018-17.014-73.784a754.5 754.5 0 0 1-143.84-81.886l-72.126 23.038-.029-.007A816.4 816.4 0 0 1 456.47 1544.63l-.009-.025 22.164-72.399a754.5 754.5 0 0 1-83.627-142.838l-73.988-16.11-.011-.019a816 816 0 0 1-41.805-152.306l.008-.03 55.392-51.618a754 754 0 0 1-1-165.52l-56.017-50.943-.01-.018a816 816 0 0 1 39.952-152.808l.02-.018 73.783-17.005a754 754 0 0 1 81.888-143.848l-23.038-72.126.005-.021a815.7 815.7 0 0 1 111.005-112.36l.016-.004 72.405 22.165a754.3 754.3 0 0 1 142.84-83.634l16.11-73.981.02-.018a817 817 0 0 1 152.306-41.805l.028.008 51.617 55.4a754.5 754.5 0 0 1 165.516-1.01l50.95-56.015.017-.01a817.4 817.4 0 0 1 152.808 39.952zm-368.82 789.604c-2.243-8.491-2.83-17.026-2.99-24.642-.297-13.32 5.693-26.419 17.541-33.392a21.97 21.97 0 0 0 10.751-17.085c.603-7.094-2.567-15.774-7.718-20.693-2.644-2.52-5.71-4.458-9.307-5.682-6.944-2.354-14.447-.305-20.61 3.668a21.76 21.76 0 0 0-9.957 18.107l-.016.441c-.114 13.805-9.187 25.122-21.252 31.485-6.12 4.776-13.463 8.156-22.086 10.08a5.05 5.05 0 0 1-3.64-.567l-85.17-49.17-233.453 134.778v269.563l233.447 134.782 233.453-134.778-.001-81.528c0-.852-.188-1.693-.554-2.464l-1.926-4.092c-4.759-10.093-16.066-15.323-26.834-12.423l-15.463 4.169a39.84 39.84 0 0 1-34.576-6.844 39.82 39.82 0 0 1-15.602-31.61l-.006-.01a39.84 39.84 0 0 1 15.6-31.603 39.82 39.82 0 0 1 34.563-6.857l14.11 3.797c11.656 3.132 23.88-2.575 28.95-13.533l1.35-2.904a4.2 4.2 0 0 0 .385-1.766l.003-81.895-76.626-44.248a5.07 5.07 0 0 1-2.366-3.084m172.126-8.461c8.478 2.3 16.16 6.06 22.845 9.729 11.675 6.41 20.023 18.14 20.145 31.892a21.95 21.95 0 0 0 9.414 17.848c5.85 4.072 14.865 5.377 21.782 3.66 3.663-.91 6.79-2.788 9.575-5.217 5.523-4.817 7.488-12.361 7.127-19.676a21.76 21.76 0 0 0-10.694-17.684c-.003-.016-.231-.145-.285-.174-11.888-7.003-15.163-20.803-17.108-34.255-.4-7.61.088-15.672 2.684-24.103a5.1 5.1 0 0 1 2.315-2.89l85.164-49.166.008-269.568-233.455-134.777-233.446 134.78.001 269.563 70.601 40.76c.74.43 1.565.685 2.415.753l4.51.38c11.112.924 21.298-6.245 24.172-17.032l4.121-15.469a39.825 39.825 0 0 1 58.388-24.234l.013.011a39.83 39.83 0 0 1 19.571 29.3 39.8 39.8 0 0 1-11.351 33.367l-10.334 10.319c-8.544 8.528-9.709 21.974-2.756 31.842l1.843 2.618c.346.497.805.917 1.333 1.216l70.92 40.95 76.632-44.237a5.1 5.1 0 0 1 3.85-.506m-78.48 151.084c-6.217 6.21-13.3 11.003-19.8 14.972-11.372 6.944-25.704 8.344-37.685 1.609a22 22 0 0 0-20.179-.713c-6.435 3.05-12.5 10.113-14.006 17.079-.789 3.634-.98 7.248-.238 10.9 1.457 7.179 6.995 12.644 13.523 15.972a21.76 21.76 0 0 0 20.66-.483l.362-.212c11.987-6.83 32.06-3.271 39.602 1.02 6.627 3.77 12.309 9.011 18.19 15.603a5.13 5.13 0 0 1 1.29 3.38l.278 98.361 233.836 134.116 233.06-135.45-.77-269.563-233.828-134.114-70.49 40.965a5.8 5.8 0 0 0-1.856 1.72l-2.57 3.721c-6.335 9.183-5.175 21.585 2.75 29.442l11.362 11.275a39.82 39.82 0 0 1 11.465 33.333 39.83 39.83 0 0 1-19.494 29.371l-.009.005a39.82 39.82 0 0 1-35.157 2.4 39.82 39.82 0 0 1-23.29-26.446l-3.81-14.102c-3.153-11.655-14.23-19.352-26.253-18.233l-3.188.296a4.2 4.2 0 0 0-1.719.55l-70.808 41.15.25 88.483a5.1 5.1 0 0 1-1.478 3.593"/>
</svg>
