<svg xmlns="http://www.w3.org/2000/svg" xml:space="preserve" style="fill-rule:evenodd;clip-rule:evenodd;stroke-linejoin:round;stroke-miterlimit:2" viewBox="0 0 500 500">
    <path d="M-2148.626-1030.015H612.577v2165.427h-2761.203z" style="fill:none" transform="matrix(.18108 0 0 .2309 389.074 237.832)"/>
    <path d="m756.223 512.868 4.725 9.026a101.5 101.5 0 0 1 21.513 5.765l8.605-5.455h.003a110 110 0 0 1 18.405 10.626l.001.003-.421 10.179a101.5 101.5 0 0 1 15.748 15.749l10.18-.421.003.001a110 110 0 0 1 10.626 18.405v.003l-5.455 8.605a101.5 101.5 0 0 1 5.765 21.513l9.026 4.725.002.003c.686 7.067.686 14.184 0 21.252l-.002.002-9.026 4.725a101.5 101.5 0 0 1-5.765 21.513l5.455 8.605v.004a110 110 0 0 1-10.626 18.404l-.003.002-10.18-.421a101.5 101.5 0 0 1-15.748 15.748l.421 10.179-.001.003a110 110 0 0 1-18.405 10.626h-.003l-8.605-5.454a101.5 101.5 0 0 1-21.513 5.764l-4.725 9.026-.003.002c-7.067.687-14.184.687-21.252 0l-.002-.002-4.726-9.026a101.5 101.5 0 0 1-21.512-5.764l-8.605 5.454h-.004a110 110 0 0 1-18.404-10.626l-.002-.003.421-10.179a101.5 101.5 0 0 1-15.748-15.748l-10.18.421-.002-.002a110 110 0 0 1-10.626-18.404v-.004l5.454-8.605a101.5 101.5 0 0 1-5.764-21.513l-9.026-4.725-.002-.002a110 110 0 0 1 0-21.252l.002-.003 9.026-4.725a101.5 101.5 0 0 1 5.764-21.513l-5.454-8.605v-.003a110 110 0 0 1 10.626-18.405l.002-.001 10.18.421a101.5 101.5 0 0 1 15.748-15.749l-.421-10.179.002-.003a110 110 0 0 1 18.404-10.626h.004l8.605 5.455a101.5 101.5 0 0 1 21.512-5.765l4.726-9.026.002-.002a110 110 0 0 1 21.252 0zM735.086 628.21c-.581-1.029-.948-2.12-1.228-3.106-.492-1.724-.158-3.633 1.147-4.944a2.96 2.96 0 0 0 .818-2.59c-.163-.944-.871-1.966-1.709-2.431a3.4 3.4 0 0 0-1.405-.423c-.984-.07-1.891.452-2.558 1.179a2.93 2.93 0 0 0-.68 2.696l.013.058c.455 1.801-.341 3.583-1.695 4.822-.634.83-1.475 1.52-2.532 2.064a.68.68 0 0 1-.493.05l-12.761-3.502-25.803 25.491 9.175 35.091 34.977 9.6 25.803-25.491-2.775-10.613a.8.8 0 0 0-.156-.302l-.39-.467a3.1 3.1 0 0 0-3.916-.704l-1.871 1.069a5.36 5.36 0 0 1-7.841-3.298l-.001-.001a5.36 5.36 0 0 1 5.221-6.714l1.966.014a3.34 3.34 0 0 0 3.308-2.747l.077-.424a.6.6 0 0 0-.01-.243l-2.787-10.661-11.481-3.152a.68.68 0 0 1-.413-.321m22.119-6.96c1.182.011 2.31.239 3.305.489 1.738.437 3.224 1.68 3.708 3.466.25.925.933 1.673 1.833 2.003s2.118.194 2.96-.265c.446-.243.789-.594 1.069-1.005.555-.815.554-1.864.258-2.804a2.93 2.93 0 0 0-2.037-1.951c-1.786-.507-2.682-2.192-3.393-3.877-.311-.977-.522-2.043-.471-3.229a.7.7 0 0 1 .203-.455l9.413-9.299-9.174-35.092-34.978-9.599-25.802 25.491 9.175 35.091 10.578 2.903a.8.8 0 0 0 .34.016l.6-.104a3.1 3.1 0 0 0 2.567-3.04l.01-2.154a5.36 5.36 0 0 1 6.776-5.142l.002.001a5.36 5.36 0 0 1 3.203 7.878l-.994 1.695a3.34 3.34 0 0 0 .725 4.239l.329.278a.55.55 0 0 0 .215.113l10.626 2.917 8.47-8.367a.7.7 0 0 1 .484-.197m-5.074 22.339c-.598 1.02-1.357 1.885-2.068 2.623-1.244 1.291-3.062 1.961-4.851 1.492a2.96 2.96 0 0 0-2.651.594c-.734.616-1.283 1.742-1.242 2.7.021.5.119.977.34 1.427.434.885 1.341 1.408 2.304 1.619a2.93 2.93 0 0 0 2.673-.766l.04-.04c1.328-1.297 4.062-1.517 5.19-1.215.991.265 1.909.754 2.899 1.412a.7.7 0 0 1 .283.396l3.384 12.795 35.005 9.5 25.729-25.565-9.275-35.065-35.004-9.5-7.782 7.732a.8.8 0 0 0-.183.287l-.208.572a3.1 3.1 0 0 0 1.36 3.739l1.863 1.081a5.358 5.358 0 0 1 1.089 8.436l-.001.001a5.358 5.358 0 0 1-8.427-1.141l-.976-1.706a3.34 3.34 0 0 0-4.038-1.48l-.405.147a.6.6 0 0 0-.205.13l-7.817 7.767 3.044 11.51a.7.7 0 0 1-.07.518" style="fill:#fff" transform="rotate(14.652 4944.606 -4271.295)scale(2.074)"/>
    <path d="M225.772 256.505c.098.363.336.674.662.86l21.38 12.35v22.853c0 .17-.035.338-.107.491l-.376.811a6.92 6.92 0 0 1-8.08 3.777l-3.936-1.058a11.11 11.11 0 0 0-13.998 10.73v.005a11.114 11.114 0 0 0 14.004 10.729l4.314-1.162a6.43 6.43 0 0 1 7.489 3.466l.537 1.143c.102.216.154.45.154.688v22.75l-65.147 37.614-65.147-37.614v-75.224l65.147-37.614 23.768 13.724c.307.176.67.234 1.016.157 2.406-.539 4.457-1.48 6.164-2.814 3.368-1.775 5.899-4.934 5.932-8.786l.002-.122a6.09 6.09 0 0 1 2.781-5.054c1.72-1.108 3.814-1.68 5.75-1.023 1.003.34 1.86.882 2.598 1.587 1.437 1.37 2.323 3.793 2.155 5.774a6.13 6.13 0 0 1-3.001 4.766c-3.306 1.947-4.978 5.602-4.897 9.32.046 2.126.21 4.505.836 6.876"/>
    <path d="M273.808 254.144a1.42 1.42 0 0 0-1.076.143l-21.385 12.342-19.792-11.427a1.15 1.15 0 0 1-.372-.34l-.514-.73a6.92 6.92 0 0 1 .77-8.886l2.884-2.88a11.11 11.11 0 0 0-2.295-17.488l-.004-.002a11.114 11.114 0 0 0-16.293 6.763l-1.151 4.317a6.43 6.43 0 0 1-6.746 4.753l-1.258-.106a1.6 1.6 0 0 1-.673-.212L186.2 229.017l-.002-75.226 65.149-37.611 65.146 37.612.001 75.225-23.767 13.723a1.42 1.42 0 0 0-.647.805c-.724 2.353-.862 4.604-.748 6.726.543 3.755 1.456 7.607 4.773 9.56a6.09 6.09 0 0 1 3.065 4.983c.1 2.043-.449 4.145-1.99 5.49-.777.68-1.65 1.203-2.673 1.458-1.928.478-4.446.115-6.077-1.021a6.13 6.13 0 0 1-2.627-4.982c-.034-3.837-2.363-7.112-5.624-8.901-1.864-1.024-4.006-2.071-6.372-2.714"/>
    <path d="M251.905 296.306a1.4 1.4 0 0 0 .411-1.004l-.066-24.69 19.759-11.484c.147-.085.31-.14.479-.154l.89-.082a6.92 6.92 0 0 1 7.325 5.088l1.064 3.935a11.11 11.11 0 0 0 16.31 6.71l.004-.002a11.114 11.114 0 0 0 2.24-17.498l-3.172-3.147a6.43 6.43 0 0 1-.766-8.216l.718-1.039a1.6 1.6 0 0 1 .518-.478l19.67-11.431 65.255 37.425.213 75.225-65.039 37.798-65.255-37.425-.078-27.45c0-.348-.13-.683-.36-.943-1.642-1.838-3.227-3.303-5.076-4.354-2.106-1.197-7.706-2.19-11.051-.285l-.1.059a6.09 6.09 0 0 1-5.768.135c-1.821-.93-3.366-2.453-3.773-4.457-.206-1.02-.154-2.028.066-3.044.42-1.943 2.113-3.915 3.91-4.765a6.13 6.13 0 0 1 5.628.2c3.345 1.88 7.345 1.49 10.52-.45 1.814-1.107 3.789-2.444 5.524-4.177"/>
</svg>
