<svg xmlns="http://www.w3.org/2000/svg" xml:space="preserve" style="fill-rule:evenodd;clip-rule:evenodd;stroke-linejoin:round;stroke-miterlimit:2" viewBox="0 0 2167 2044">
    <path d="M-2148.626-1030.015H612.577v2165.427h-2761.203z" style="fill:none" transform="matrix(.78434 0 0 .94379 1686.22 972.244)"/>
    <path d="m756.223 512.868 4.725 9.026a101.5 101.5 0 0 1 21.513 5.765l8.605-5.455h.003a110 110 0 0 1 18.405 10.626l.001.003-.421 10.179a101.5 101.5 0 0 1 15.748 15.749l10.18-.421.003.001a110 110 0 0 1 10.626 18.405v.003l-5.455 8.605a101.5 101.5 0 0 1 5.765 21.513l9.026 4.725.002.003c.686 7.067.686 14.184 0 21.252l-.002.002-9.026 4.725a101.5 101.5 0 0 1-5.765 21.513l5.455 8.605v.004a110 110 0 0 1-10.626 18.404l-.003.002-10.18-.421a101.5 101.5 0 0 1-15.748 15.748l.421 10.179-.001.003a110 110 0 0 1-18.405 10.626h-.003l-8.605-5.454a101.5 101.5 0 0 1-21.513 5.764l-4.725 9.026-.003.002c-7.067.687-14.184.687-21.252 0l-.002-.002-4.726-9.026a101.5 101.5 0 0 1-21.512-5.764l-8.605 5.454h-.004a110 110 0 0 1-18.404-10.626l-.002-.003.421-10.179a101.5 101.5 0 0 1-15.748-15.748l-10.18.421-.002-.002a110 110 0 0 1-10.626-18.404v-.004l5.454-8.605a101.5 101.5 0 0 1-5.764-21.513l-9.026-4.725-.002-.002a110 110 0 0 1 0-21.252l.002-.003 9.026-4.725a101.5 101.5 0 0 1 5.764-21.513l-5.454-8.605v-.003a110 110 0 0 1 10.626-18.405l.002-.001 10.18.421a101.5 101.5 0 0 1 15.748-15.749l-.421-10.179.002-.003a110 110 0 0 1 18.404-10.626h.004l8.605 5.455a101.5 101.5 0 0 1 21.512-5.765l4.726-9.026.002-.002a110 110 0 0 1 21.252 0zM735.086 628.21c-.581-1.029-.948-2.12-1.228-3.106-.492-1.724-.158-3.633 1.147-4.944a2.96 2.96 0 0 0 .818-2.59c-.163-.944-.871-1.966-1.709-2.431a3.4 3.4 0 0 0-1.405-.423c-.984-.07-1.891.452-2.558 1.179a2.93 2.93 0 0 0-.68 2.696l.013.058c.455 1.801-.341 3.583-1.695 4.822-.634.83-1.475 1.52-2.532 2.064a.68.68 0 0 1-.493.05l-12.761-3.502-25.803 25.491 9.175 35.091 34.977 9.6 25.803-25.491-2.775-10.613a.8.8 0 0 0-.156-.302l-.39-.467a3.1 3.1 0 0 0-3.916-.704l-1.871 1.069a5.36 5.36 0 0 1-7.841-3.298l-.001-.001a5.36 5.36 0 0 1 5.221-6.714l1.966.014a3.34 3.34 0 0 0 3.308-2.747l.077-.424a.6.6 0 0 0-.01-.243l-2.787-10.661-11.481-3.152a.68.68 0 0 1-.413-.321m22.119-6.96c1.182.011 2.31.239 3.305.489 1.738.437 3.224 1.68 3.708 3.466.25.925.933 1.673 1.833 2.003s2.118.194 2.96-.265c.446-.243.789-.594 1.069-1.005.555-.815.554-1.864.258-2.804a2.93 2.93 0 0 0-2.037-1.951c-1.786-.507-2.682-2.192-3.393-3.877-.311-.977-.522-2.043-.471-3.229a.7.7 0 0 1 .203-.455l9.413-9.299-9.174-35.092-34.978-9.599-25.802 25.491 9.175 35.091 10.578 2.903a.8.8 0 0 0 .34.016l.6-.104a3.1 3.1 0 0 0 2.567-3.04l.01-2.154a5.36 5.36 0 0 1 6.776-5.142l.002.001a5.36 5.36 0 0 1 3.203 7.878l-.994 1.695a3.34 3.34 0 0 0 .725 4.239l.329.278a.55.55 0 0 0 .215.113l10.626 2.917 8.47-8.367a.7.7 0 0 1 .484-.197m-5.074 22.339c-.598 1.02-1.357 1.885-2.068 2.623-1.244 1.291-3.062 1.961-4.851 1.492a2.96 2.96 0 0 0-2.651.594c-.734.616-1.283 1.742-1.242 2.7.021.5.119.977.34 1.427.434.885 1.341 1.408 2.304 1.619a2.93 2.93 0 0 0 2.673-.766l.04-.04c1.328-1.297 4.062-1.517 5.19-1.215.991.265 1.909.754 2.899 1.412a.7.7 0 0 1 .283.396l3.384 12.795 35.005 9.5 25.729-25.565-9.275-35.065-35.004-9.5-7.782 7.732a.8.8 0 0 0-.183.287l-.208.572a3.1 3.1 0 0 0 1.36 3.739l1.863 1.081a5.358 5.358 0 0 1 1.089 8.436l-.001.001a5.358 5.358 0 0 1-8.427-1.141l-.976-1.706a3.34 3.34 0 0 0-4.038-1.48l-.405.147a.6.6 0 0 0-.205.13l-7.817 7.767 3.044 11.51a.7.7 0 0 1-.07.518" style="fill:#fff" transform="rotate(14.653 17321.913 -14511.519)scale(7.43198)"/>
    <path d="M997.013 1045.29a5.08 5.08 0 0 0 2.371 3.084l76.616 44.25v81.893c0 .609-.126 1.211-.386 1.761l-1.345 2.906c-5.076 10.955-17.295 16.67-28.955 13.534l-14.106-3.79a39.81 39.81 0 0 0-34.566 6.851 39.82 39.82 0 0 0-15.593 31.601v.015a39.83 39.83 0 0 0 15.6 31.608 39.81 39.81 0 0 0 34.581 6.838l15.459-4.162c10.776-2.906 22.08 2.326 26.836 12.419l1.925 4.095c.364.773.55 1.612.55 2.467v81.521l-233.445 134.787-233.446-134.787v-269.557l233.446-134.787 85.17 49.178c1.1.631 2.4.84 3.642.565 8.62-1.933 15.971-5.307 22.087-10.086 12.07-6.361 21.137-17.68 21.256-31.481l.007-.439a21.8 21.8 0 0 1 9.967-18.112c6.16-3.968 13.667-6.02 20.601-3.664 3.597 1.22 6.667 3.159 9.312 5.686 5.15 4.912 8.324 13.593 7.722 20.69a21.98 21.98 0 0 1-10.754 17.08c-11.846 6.978-17.837 20.073-17.547 33.398.164 7.618.75 16.143 2.995 24.637"/>
    <path d="M1169.144 1036.83a5.08 5.08 0 0 0-3.856.51l-76.63 44.227-70.921-40.947a4.1 4.1 0 0 1-1.332-1.215l-1.844-2.618c-6.95-9.873-5.79-23.312 2.757-31.842l10.335-10.321a39.81 39.81 0 0 0 11.349-33.362 39.82 39.82 0 0 0-19.571-29.303l-.013-.008a39.83 39.83 0 0 0-35.173-2.294 39.81 39.81 0 0 0-23.212 26.53l-4.125 15.468c-2.872 10.785-13.055 17.959-24.173 17.032l-4.51-.38a5.8 5.8 0 0 1-2.411-.758l-70.6-40.761-.005-269.563 233.451-134.777 233.444 134.779.005 269.563-85.167 49.175a5.1 5.1 0 0 0-2.318 2.884c-2.593 8.432-3.088 16.496-2.682 24.102 1.946 13.456 5.22 27.257 17.106 34.257.052.03.277.16.28.17a21.8 21.8 0 0 1 10.702 17.687c.356 7.32-1.608 14.854-7.128 19.673-2.786 2.434-5.912 4.31-9.58 5.222-6.912 1.716-15.933.412-21.78-3.658a21.98 21.98 0 0 1-9.413-17.852c-.12-13.749-8.466-25.484-20.15-31.896-6.68-3.667-14.356-7.421-22.835-9.725"/>
    <path d="M1090.657 1187.915a5.08 5.08 0 0 0 1.475-3.6l-.239-88.476 70.804-41.149a4.1 4.1 0 0 1 1.718-.55l3.188-.298c12.022-1.116 23.102 6.576 26.25 18.234l3.81 14.1a39.81 39.81 0 0 0 23.294 26.443 39.82 39.82 0 0 0 35.156-2.397l.013-.008a39.83 39.83 0 0 0 19.49-29.37 39.81 39.81 0 0 0-11.465-33.333l-11.365-11.275c-7.928-7.857-9.084-20.259-2.748-29.443l2.574-3.721a5.8 5.8 0 0 1 1.857-1.716l70.482-40.962 233.835 134.11.764 269.562-233.058 135.445-233.835-134.11-.278-98.365a5.1 5.1 0 0 0-1.291-3.375c-5.883-6.587-11.565-11.838-18.189-15.604-7.546-4.288-27.615-7.848-39.6-1.02l-.36.21a21.8 21.8 0 0 1-20.668.483c-6.527-3.333-12.062-8.79-13.52-15.971-.738-3.653-.553-7.268.237-10.908 1.507-6.962 7.57-14.027 14.01-17.073a21.98 21.98 0 0 1 20.17.717c11.985 6.736 26.317 5.335 37.693-1.612 6.504-3.969 13.58-8.76 19.796-14.968"/>
</svg>
